<svg xmlns="http://www.w3.org/2000/svg" xmlns:xlink="http://www.w3.org/1999/xlink" width="157" height="153" viewBox="0 0 157 153">
  <defs>
    <clipPath id="clip-path">
      <path id="Path_123" data-name="Path 123" d="M172.2,89.229a69.121,69.121,0,1,1-69.12-69.12A69.12,69.12,0,0,1,172.2,89.229Z" fill="none"/>
    </clipPath>
    <clipPath id="clip-female">
      <rect width="157" height="153"/>
    </clipPath>
  </defs>
  <g id="female" clip-path="url(#clip-female)">
    <g id="Group_49" data-name="Group 49" transform="translate(-24.578 -12.73)">
      <path id="Path_70" data-name="Path 70" d="M172.2,89.229a69.121,69.121,0,1,1-69.12-69.12A69.12,69.12,0,0,1,172.2,89.229Z" fill="#2563eb"/>
      <g id="Group_17" data-name="Group 17">
        <g id="Group_16" data-name="Group 16" clip-path="url(#clip-path)">
          <g id="Group_15" data-name="Group 15">
            <g id="Group_13" data-name="Group 13">
              <path id="Path_71" data-name="Path 71" d="M114.24,126.652a12.931,12.931,0,0,0,1.508-2.114,3.1,3.1,0,0,0-.186-3.457,24.37,24.37,0,0,0-2.743-3.37c-1.319-1.581-2.619-3.195-4-4.727-.085,1.247-.233,2.494-.348,3.731a30.021,30.021,0,0,1-.6,4.924c0,.173.005.349.009.527.656-1.323,1.3-2.65,1.957-3.973.223-.448.987-.126.811.343a64.3,64.3,0,0,1-4.388,9.092,47.208,47.208,0,0,1-2.714,4.441c-.341.472-.542.812-.992.928a4.715,4.715,0,0,0-.39.778,7.887,7.887,0,0,0-.3,1.771c.017,0,.03.014.046.019C106.377,133.023,110.826,130.64,114.24,126.652Z" fill="#5199ce"/>
              <path id="Path_72" data-name="Path 72" d="M100.181,103.8a2.4,2.4,0,0,0,2.962-1,8.2,8.2,0,0,1-5.192-.3c.08.091.163.182.254.272A4.139,4.139,0,0,0,100.181,103.8Z" fill="#fff"/>
              <path id="Path_73" data-name="Path 73" d="M111.64,82.987a3.5,3.5,0,0,0-.369,1.1,5.243,5.243,0,0,0,.769.36,2.712,2.712,0,0,0,.1-.492C112.15,83.815,112.144,82.712,111.64,82.987Z" fill="#fff"/>
              <path id="Path_74" data-name="Path 74" d="M94.6,112.39a.328.328,0,0,1,.039-.017c.01-.068.009-.138.022-.206a13.648,13.648,0,0,1-4.507-.7,13.822,13.822,0,0,1-4.368-3.447,23.727,23.727,0,0,1-5.087-9.988A89.955,89.955,0,0,1,78.6,85.218c-.541-4.677-1.406-9.725-1.142-14.461a11.976,11.976,0,0,1-.924-6.34c.042-.307.461-.181.492.067a17.461,17.461,0,0,0,2.447,7.625,5.018,5.018,0,0,0,4.29,2.625c.811.062,1.633.042,2.456.029C82.735,71.9,82.058,67.284,83.1,62.9a.339.339,0,0,1,.648,0c.815,2.275,1.7,4.528,2.73,6.715,1.286,2.739,2.834,4.485,5.783,5.445a21.557,21.557,0,0,0,7.728.862,13.424,13.424,0,0,1-3.95-4.056c-2.091-2.875-3.956-5.825-4.437-9.408-.036-.264.4-.314.459-.062,1.155,5.152,5.369,11.106,10.208,13.357,1.172-.124,2.337-.291,3.481-.477-3.634-2.481-6.437-6.488-6.459-10.981a5.84,5.84,0,0,1-.548-3.57c.037-.21.4-.217.432,0,.96,6.695,8.772,10.859,14.781,13.094A18.815,18.815,0,0,1,110.885,62.8a.356.356,0,0,1,.711,0c.033.465.078.923.128,1.38.488,3,3.1,5.032,5.6,6.488,2.137,1.25,5.577,3.076,8.113,2.458.325-.078.635.356.35.6a2.916,2.916,0,0,1-1.483.646c.783,7.75-.465,16.338-2.488,23.794-1.794,6.619-5.934,11.5-12.926,12.66.012.426,0,.853-.014,1.279a6.2,6.2,0,0,1,2.521,2.132c1.185,1.321,2.322,2.686,3.445,4.06a.5.5,0,0,1,.369-.273c3.019-.637,4.209-2.151,4.993-5.078.572-2.138,1.164-4.27,1.875-6.365a.238.238,0,0,1,.458.125,58.258,58.258,0,0,1-1.3,7.006,29.985,29.985,0,0,0,5.261-9.159.241.241,0,0,1,.464.128,20.015,20.015,0,0,1-2.626,7.006c4.841-.9,6.7-5.985,7.168-10.49.455-4.359.631-8.783.739-13.162.353-14.391-1.713-30.41-12.494-41.01A19.063,19.063,0,0,0,109,41.4a41.448,41.448,0,0,0-12.193.356A31.4,31.4,0,0,0,77.953,51.47a.308.308,0,0,1-.034.071,31.2,31.2,0,0,0-3.944,6.115,60.03,60.03,0,0,0-2.736,8.235,86.081,86.081,0,0,0-3.172,18.1,57.949,57.949,0,0,0,1.573,17.7c1.156,4.511,3.773,14.524,9.98,13.8a8.188,8.188,0,0,1-1.938-1.693,13.063,13.063,0,0,1-3.191-9.205c.019-.237.39-.323.44-.06.588,3.092,1.461,6.013,3.56,8.455,2.05,2.386,4.461,2.333,7.171,3.064a14.4,14.4,0,0,1-1.289-1.229,17.865,17.865,0,0,1-3.517-5.984c-.1-.266.34-.447.458-.192a18.221,18.221,0,0,0,3.448,4.988,12.08,12.08,0,0,0,5.13,3.178A24.515,24.515,0,0,1,94.6,112.39Zm33.89-42.666a.3.3,0,0,1,.593,0,21.511,21.511,0,0,1-.045,3.59.263.263,0,0,1-.5,0A21.4,21.4,0,0,1,128.485,69.724Zm-.092,8.644c.694,6.813.26,14.113-2.2,20.564a.277.277,0,0,1-.534-.147c1.643-6.8,2.7-13.393,2.184-20.417C127.812,78.01,128.357,78.019,128.393,78.368ZM119.8,62.531c1.444,1.97,2.88,3.94,4.138,6.034.123.206-.18.45-.335.26-1.568-1.907-2.957-3.937-4.344-5.979C119.029,62.509,119.566,62.212,119.8,62.531Zm-7.56-6.914a50.145,50.145,0,0,0,8.477,12.609.323.323,0,0,1-.456.456,27.9,27.9,0,0,1-8.514-12.857C111.648,55.537,112.117,55.339,112.24,55.617Zm-6.022,1a31.457,31.457,0,0,0,3.755,6.621c.194.292-.234.593-.471.363a16.316,16.316,0,0,1-3.806-6.841C105.59,56.421,106.1,56.292,106.218,56.614Zm-3.477,1.433a20.6,20.6,0,0,0,5.615,9.812c.219.226-.077.646-.347.45a15.27,15.27,0,0,1-5.859-10.1C102.093,57.83,102.651,57.655,102.741,58.047Zm-6.815,3.838A37.413,37.413,0,0,0,97.2,66.579a.232.232,0,0,1-.423.178,13.255,13.255,0,0,1-1.433-4.794C95.3,61.632,95.871,61.559,95.926,61.885Zm-7.049-.414c-.224,4.446,2.194,7.653,5.035,10.765a.263.263,0,0,1-.372.372c-3.443-2.663-5.716-6.716-5.223-11.137C88.356,61.121,88.895,61.1,88.877,61.471Zm-.845-8.861c.043-.432.087-.862.13-1.293.033-.336.545-.348.533,0-.016.462-.034.923-.051,1.385a2.48,2.48,0,0,1-.158,1.145.261.261,0,0,1-.47-.061A2.627,2.627,0,0,1,88.032,52.61ZM85.135,51c.143-.324.7-.086.572.241a18.338,18.338,0,0,0-.827,2.681,20.144,20.144,0,0,1-.533,2.745c-.081.215-.44.272-.5,0C83.475,54.849,84.419,52.635,85.135,51ZM81.56,69.982A12.791,12.791,0,0,1,79.969,64c-.011-.244.362-.242.377,0A16.106,16.106,0,0,0,81.9,69.782C82,70.01,81.693,70.207,81.56,69.982Zm-.683-19.035c.208-.391.766-.047.586.343-1.152,2.51-1.43,5.016-2.185,7.617a.241.241,0,0,1-.471-.064C78.478,56.183,79.659,53.258,80.877,50.947ZM72.924,74.365a.31.31,0,0,1,.62,0,44.869,44.869,0,0,1-.175,8.324c-.035.313-.5.329-.5,0C72.873,79.916,72.868,77.136,72.924,74.365Zm2.364,27.487A27.448,27.448,0,0,1,72.935,85.89c.054-.4.687-.425.652,0a39.9,39.9,0,0,0,2.182,15.759A.264.264,0,0,1,75.288,101.852Zm2.365-3.417a25.692,25.692,0,0,1-1.431-5.762c-.052-.321.435-.462.5-.136.364,1.958.984,3.829,1.43,5.761A.257.257,0,0,1,77.653,98.435Z" fill="#de953d"/>
              <path id="Path_75" data-name="Path 75" d="M85.781,108.022a23.727,23.727,0,0,1-5.087-9.988A89.955,89.955,0,0,1,78.6,85.218c-.541-4.677-1.406-9.725-1.142-14.461a11.976,11.976,0,0,1-.924-6.34c0-.01.011-.012.012-.021-.173-.849-.343-1.7-.527-2.546-1.714,2.514-2.624,5.488-4.4,7.98a.534.534,0,0,1-.912,0c-.117-.251-.205-.506-.3-.76a82.2,82.2,0,0,0-2.345,14.917,57.949,57.949,0,0,0,1.573,17.7c1.156,4.511,3.773,14.524,9.98,13.8a8.188,8.188,0,0,1-1.938-1.693,13.063,13.063,0,0,1-3.191-9.205c.019-.237.39-.323.44-.06.588,3.092,1.461,6.013,3.56,8.455,2.05,2.386,4.461,2.333,7.171,3.064a14.4,14.4,0,0,1-1.289-1.229,17.865,17.865,0,0,1-3.517-5.984c-.1-.266.34-.447.458-.192a18.221,18.221,0,0,0,3.448,4.988,12.08,12.08,0,0,0,5.13,3.178,24.515,24.515,0,0,1,4.7-4.42.328.328,0,0,1,.039-.017c.01-.068.009-.138.022-.206a13.648,13.648,0,0,1-4.507-.7A13.822,13.822,0,0,1,85.781,108.022ZM72.924,74.365a.31.31,0,0,1,.62,0,44.869,44.869,0,0,1-.175,8.324c-.035.313-.5.329-.5,0C72.873,79.916,72.868,77.136,72.924,74.365Zm2.364,27.487A27.448,27.448,0,0,1,72.935,85.89c.054-.4.687-.425.652,0a39.9,39.9,0,0,0,2.182,15.759A.264.264,0,0,1,75.288,101.852Zm2.365-3.417a25.692,25.692,0,0,1-1.431-5.762c-.052-.321.435-.462.5-.136.364,1.958.984,3.829,1.43,5.761A.257.257,0,0,1,77.653,98.435Z" fill="#b2642f"/>
              <path id="Path_76" data-name="Path 76" d="M129.453,63.59a8,8,0,0,1-.778,1.065.534.534,0,0,1-.746,0c-1.194-.974-1.806-2.385-2.831-3.492-.438,1.135-.345,2.418-.768,3.579a.535.535,0,0,1-.965.127c-.914-1.22-1.248-2.749-2.138-3.952a22.508,22.508,0,0,0-.578,2.225.478.478,0,0,1-.2.281c1.22,1.676,2.419,3.364,3.487,5.142.123.206-.18.45-.335.26-1.568-1.907-2.957-3.937-4.344-5.979a.264.264,0,0,1-.04-.244,9.467,9.467,0,0,0-2.014-2.314c-.287.885-.4,1.8-.674,2.7,1.294,1.8,2.7,3.526,4.186,5.242a.323.323,0,0,1-.456.456,23.919,23.919,0,0,1-4.97-5.55c-1.231-1.035-1.818-2.546-2.6-3.943-.46,1.288-.607,2.666-1.067,3.963.028.345.057.688.1,1.029.488,3,3.1,5.032,5.6,6.488,2.137,1.25,5.577,3.076,8.113,2.458.325-.078.635.356.35.6a2.916,2.916,0,0,1-1.483.646c.783,7.75-.465,16.338-2.488,23.794-1.794,6.619-5.934,11.5-12.926,12.66.012.426,0,.853-.014,1.279a6.2,6.2,0,0,1,2.521,2.132c1.185,1.321,2.322,2.686,3.445,4.06a.5.5,0,0,1,.369-.273c3.019-.637,4.209-2.151,4.993-5.078.572-2.138,1.164-4.27,1.875-6.365a.238.238,0,0,1,.458.125,58.258,58.258,0,0,1-1.3,7.006,29.985,29.985,0,0,0,5.261-9.159.241.241,0,0,1,.464.128,20.015,20.015,0,0,1-2.626,7.006c4.841-.9,6.7-5.985,7.168-10.49.455-4.359.631-8.783.739-13.162C132.434,79.985,131.872,71.426,129.453,63.59ZM126.19,98.932a.277.277,0,0,1-.534-.147c1.643-6.8,2.7-13.393,2.184-20.417-.028-.358.517-.349.553,0C129.087,85.181,128.653,92.481,126.19,98.932Zm2.843-25.618a.263.263,0,0,1-.5,0,21.4,21.4,0,0,1-.045-3.59.3.3,0,0,1,.593,0A21.511,21.511,0,0,1,129.033,73.314Z" fill="#b2642f"/>
              <path id="Path_77" data-name="Path 77" d="M108.009,68.309a14.462,14.462,0,0,1-4.844-6.414c-.355,1.107-.645,2.238-1.082,3.328a.534.534,0,0,1-.882.233c-.086-.1-.162-.208-.243-.311,2.857,4.171,8.441,6.976,13,8.67a19.312,19.312,0,0,1-3.086-9.981.439.439,0,0,1-.223-.139c-.961-1.111-1.6-2.468-2.572-3.547-.012.042-.019.083-.03.124.608.994,1.265,1.962,1.931,2.963.194.292-.234.593-.471.363a11.7,11.7,0,0,1-1.732-2.177c-.23,1.107-.4,2.225-.725,3.321a.534.534,0,0,1-.882.233c-1.406-1.245-1.553-3.093-2.431-4.619-.055.126-.1.257-.148.385a22.029,22.029,0,0,0,4.772,7.118C108.575,68.085,108.279,68.5,108.009,68.309Z" fill="#b2642f"/>
              <path id="Path_78" data-name="Path 78" d="M99.288,64.291a5.879,5.879,0,0,1-.561-3.433c-.12-.28-.242-.561-.369-.839-1.068,1.049-1.429,2.707-1.859,4.275.222.763.465,1.521.7,2.285a.232.232,0,0,1-.423.178,9.832,9.832,0,0,1-.617-1.362,7.17,7.17,0,0,1-.532,1.234.531.531,0,0,1-.911,0c-.929-2.063-1.346-4.308-2.4-6.3C90.63,62.008,90.537,64.781,90.259,67a.549.549,0,0,1-.082.215,24.224,24.224,0,0,0,3.735,5.018.263.263,0,0,1-.372.372,13.8,13.8,0,0,1-4.674-6.317c-.177-.444-.349-.888-.533-1.329-.2-.474-2.006-5.018-3.064-2.774a12.181,12.181,0,0,0-.788,2.65c.615,1.612,1.26,3.212,1.994,4.773,1.286,2.739,2.834,4.485,5.783,5.445a21.557,21.557,0,0,0,7.728.862,13.424,13.424,0,0,1-3.95-4.056c-2.091-2.875-3.956-5.825-4.437-9.408-.036-.264.4-.314.459-.062,1.155,5.152,5.369,11.106,10.208,13.357,1.172-.124,2.337-.291,3.481-.477C102.113,72.791,99.31,68.784,99.288,64.291Z" fill="#b2642f"/>
              <path id="Path_79" data-name="Path 79" d="M77.979,68.958a13.422,13.422,0,0,0,1.5,3.151,5.018,5.018,0,0,0,4.29,2.625c.811.062,1.633.042,2.456.029a9.97,9.97,0,0,1-3.531-7.247.543.543,0,0,1-.029-.053c-.745-1.951-1.1-4.011-1.809-5.965a11.868,11.868,0,0,0-.745,2.337.187.187,0,0,1,.239.168A16.106,16.106,0,0,0,81.9,69.782c.1.228-.209.425-.342.2a12.551,12.551,0,0,1-1.57-5.642A12.522,12.522,0,0,1,78.5,68.709.553.553,0,0,1,77.979,68.958Z" fill="#b2642f"/>
              <path id="Path_80" data-name="Path 80" d="M90.193,82.987a3.521,3.521,0,0,0-.367,1.1,5.233,5.233,0,0,0,.768.36,2.712,2.712,0,0,0,.1-.492C90.705,83.815,90.7,82.712,90.193,82.987Z" fill="#fff"/>
              <path id="Path_81" data-name="Path 81" d="M97.6,125.965a34.843,34.843,0,0,0,2.222,3.263c.394.514.793,1.017,1.216,1.508.547.637.512.871,1.279.644.952-.282,1.805-2.356,2.312-3.205q1-1.674,1.931-3.392c.21-.392.4-.793.605-1.189,0-.006-.008-.008-.01-.014a5.628,5.628,0,0,1-.065-1.853,27.133,27.133,0,0,1,.309-5.477,33.85,33.85,0,0,1,.886-6.121.293.293,0,0,1,.516-.1c3.054-1.427,6.07-2.256,8.314-5.006,2.192-2.684,3.194-6.081,3.931-9.406,1.555-7.019,1.816-14.087,2.555-21.194-2.48-.03-5.631-1.912-7.254-2.906a14.686,14.686,0,0,1-3.816-3.15,17.326,17.326,0,0,0,3.05,6.078.52.52,0,0,1-.5.861A26.149,26.149,0,0,1,104.135,69.8a23.171,23.171,0,0,1-3.783-3.763,13.459,13.459,0,0,0,6.75,9.11.423.423,0,0,1-.1.765c-5.4,1.124-11.319,1.995-16.546-.333-4.157-1.853-5.871-6.67-6.971-10.942-.471,4.01.676,8.094,4.449,10.2a.473.473,0,0,1-.237.875c-3.459.253-6.476.691-8.737-2.334-.133-.18-.252-.371-.377-.556.5,3.158.6,6.442.963,9.575.472,4.077.912,8.175,1.686,12.207A28.758,28.758,0,0,0,84.87,104.75a17.424,17.424,0,0,0,4.576,4.9c1.764,1.217,3.626,1.238,5.57,1.945a.332.332,0,0,1,.135.505,21.329,21.329,0,0,1,.664,5.155,34.848,34.848,0,0,1,.219,5.746C96.517,124.008,97.019,125,97.6,125.965ZM112.036,86.6c-1.181.692-1.882-.55-1.791-1.578a4.784,4.784,0,0,1,.869-2.562.919.919,0,0,1,.431-.443c.065-.056.124-.114.2-.166a.293.293,0,0,1,.424.11,1.539,1.539,0,0,1,1.039,1.209A3.64,3.64,0,0,1,112.036,86.6Zm-2.608-8.89c.811-1.413,2.359-2.679,4.081-2.108a3.59,3.59,0,0,1,2.322,3.637.4.4,0,0,1-.729.2c-.517-.8-.82-1.925-1.695-2.426-1.285-.736-2.435.4-3.333,1.2A.413.413,0,0,1,109.428,77.713ZM85.946,79.369c-.3.147-.719-.1-.6-.461.374-1.121,1.529-2.618,2.856-2.6a4.427,4.427,0,0,1,3.372,2.024.377.377,0,0,1-.512.513,11.961,11.961,0,0,0-2.5-1.02C87.456,77.608,86.833,78.928,85.946,79.369ZM90.589,86.6c-1.179.692-1.882-.55-1.791-1.578a4.785,4.785,0,0,1,.87-2.562.912.912,0,0,1,.432-.443c.065-.056.124-.114.195-.166a.291.291,0,0,1,.423.11,1.534,1.534,0,0,1,1.039,1.209A3.635,3.635,0,0,1,90.589,86.6Zm8.341,7.234c.407-.757.68-1.568,1.083-2.326.148-.277.523-.121.546.148a3.4,3.4,0,0,1-.236,1.534,6.947,6.947,0,0,0-.536,1.146c-.126.994,2.1,1.478,2.729,1.936a.3.3,0,0,1-.149.553,4.327,4.327,0,0,1-3.544-1.653A1.256,1.256,0,0,1,98.93,93.837Zm-2,7.671c1.335.119,2.633.532,3.982.536a6.918,6.918,0,0,0,3.568-1.081.387.387,0,0,1,.467.6,3.584,3.584,0,0,1-.384.4,3.3,3.3,0,0,1-3.4,3.076c-1.822-.1-4.049-1.09-4.387-3.058A.266.266,0,0,1,96.929,101.508Z" fill="#f7bf74"/>
              <path id="Path_82" data-name="Path 82" d="M84.868,77.382c.375.106.753.206,1.131.3a2.9,2.9,0,0,1,2.2-1.371,4.456,4.456,0,0,1,3.215,1.794c.459.016.811.069.844.2a.535.535,0,0,1,.65-.649,50.379,50.379,0,0,0,16.465.286.391.391,0,0,1,.051-.23c.811-1.413,2.359-2.679,4.081-2.108a3.356,3.356,0,0,1,1.826,1.543q1.4-.2,2.794-.4a5.355,5.355,0,0,1,5.047,2.178c.13-1.5.264-3,.42-4.5-2.48-.03-5.631-1.912-7.254-2.906a14.686,14.686,0,0,1-3.816-3.15,17.326,17.326,0,0,0,3.05,6.078.52.52,0,0,1-.5.861A26.149,26.149,0,0,1,104.135,69.8a23.171,23.171,0,0,1-3.783-3.763,13.459,13.459,0,0,0,6.75,9.11.423.423,0,0,1-.1.765c-5.4,1.124-11.319,1.995-16.546-.333-4.157-1.853-5.871-6.67-6.971-10.942-.471,4.01.676,8.094,4.449,10.2a.473.473,0,0,1-.237.875c-3.459.253-6.476.691-8.737-2.334-.133-.18-.252-.371-.377-.556.1.623.173,1.254.246,1.885A27.331,27.331,0,0,0,84.868,77.382Z" fill="#d88666"/>
              <path id="Path_83" data-name="Path 83" d="M110.534,77.805q1.655-.208,3.305-.444a2,2,0,0,0-.432-.347C112.331,76.4,111.352,77.092,110.534,77.805Z" fill="#f7bf74"/>
              <path id="Path_84" data-name="Path 84" d="M101.822,112.365a29.667,29.667,0,0,1-6.539.274,25.5,25.5,0,0,1,.532,4.621c.036.519.081,1.044.126,1.571a9.206,9.206,0,0,0,4.225,1.369,11.235,11.235,0,0,0,6.969-1.547c.078-.805.18-1.609.259-2.4.157-1.578.263-3.185.564-4.748-.046,0-.086,0-.136.006C105.815,111.74,103.822,112.086,101.822,112.365Z" fill="#d88666"/>
              <path id="Path_85" data-name="Path 85" d="M88.138,127.437c3.08,3.833,7.259,5.985,11.856,7.48a.37.37,0,0,1,.243.272,2.608,2.608,0,0,0,.527.213,1.7,1.7,0,0,0,.174.027,4.1,4.1,0,0,1,.4-2.158,4.19,4.19,0,0,1,.205-.382c-1.63-.73-3.285-3.773-4.066-4.99a23.7,23.7,0,0,1-3.557-8.184c-.047-.256.315-.448.446-.186.178.351.346.706.516,1.06-.071-.965-.1-1.938-.16-2.895a40.272,40.272,0,0,1-.2-4.089c-1.378,1.743-3.007,3.308-4.446,5a21.88,21.88,0,0,0-2.95,3.657C86.2,124.094,86.919,125.921,88.138,127.437Z" fill="#5199ce"/>
              <path id="Path_86" data-name="Path 86" d="M102.991,145.5a.3.3,0,0,1-.287-.12,1.1,1.1,0,0,0-1.1,1.309c.033.724.546,1.444,1.341,1.289a2.372,2.372,0,0,0,1.538-1.459C104.733,145.7,103.58,145.427,102.991,145.5Z" fill="#316baa"/>
              <path id="Path_87" data-name="Path 87" d="M141.5,135.548c-.322-2.087-.237-5.2-1.4-7.031-1.323-2.075-4.913-2.843-7.1-3.556s-4.383-1.3-6.593-1.882A67.728,67.728,0,0,1,116.33,120.1c1.06,1.3,1.7,2.428.819,4.352-1.342,2.94-3.974,5.158-6.441,7.134-2.487,1.994-5.4,4.233-8.6,4.815a.411.411,0,0,1-.328-.092,2.616,2.616,0,0,1-2.219-.692,20.1,20.1,0,0,1-13.461-8.9c-1.8-2.719-.727-4.276,1.115-6.614.34-.432.688-.872,1.04-1.315-3.5,1.364-7.3,2.163-10.886,3.165-3.792,1.061-9.8,1.7-12.236,5.1-2.3,3.2-2.442,8.4-3.042,12.2-.5,3.156-.819,6.315-1.093,9.483a75.111,75.111,0,0,0,9.71,5.475,66.26,66.26,0,0,1-1.071-8.216c-.442-3.449-.933-6.89-1.342-10.343-.044-.366.557-.434.634-.086.783,3.56,1.37,7.142,1.888,10.749.387,2.693,1.037,5.587.853,8.335a82.038,82.038,0,0,0,32.515,7.146,70.36,70.36,0,0,0,29.137-5.642c-.652-6.4.459-13.392,1.927-19.617.1-.408.664-.222.609.167-.472,3.369-.879,6.756-1.163,10.146-.248,2.963-.193,5.948-.44,8.9a70.81,70.81,0,0,0,9.252-4.982c-.277-2.641-.565-5.281-.929-7.915C142.238,140.414,141.873,137.98,141.5,135.548Zm-38.406,13.517a2.283,2.283,0,0,1-2.513-2.374,2.242,2.242,0,0,1,.675-1.744,1.9,1.9,0,0,1,1.543-.249c.878-.869,2.66.25,2.828,1.293C105.844,147.355,104.372,148.864,103.091,149.065Z" fill="#5199ce"/>
              <path id="Path_88" data-name="Path 88" d="M114.24,126.652a12.931,12.931,0,0,0,1.508-2.114,3.1,3.1,0,0,0-.186-3.457,24.37,24.37,0,0,0-2.743-3.37c-1.319-1.581-2.619-3.195-4-4.727-.085,1.247-.233,2.494-.348,3.731a30.021,30.021,0,0,1-.6,4.924c0,.173.005.349.009.527.656-1.323,1.3-2.65,1.957-3.973.223-.448.987-.126.811.343a64.3,64.3,0,0,1-4.388,9.092,47.208,47.208,0,0,1-2.714,4.441c-.341.472-.542.812-.992.928a4.715,4.715,0,0,0-.39.778,7.887,7.887,0,0,0-.3,1.771c.017,0,.03.014.046.019C106.377,133.023,110.826,130.64,114.24,126.652Z" fill="#5199ce"/>
              <path id="Path_89" data-name="Path 89" d="M88.138,127.437c3.08,3.833,7.259,5.985,11.856,7.48a.37.37,0,0,1,.243.272,2.608,2.608,0,0,0,.527.213,1.7,1.7,0,0,0,.174.027,4.1,4.1,0,0,1,.4-2.158,4.19,4.19,0,0,1,.205-.382c-1.63-.73-3.285-3.773-4.066-4.99a23.7,23.7,0,0,1-3.557-8.184c-.047-.256.315-.448.446-.186.178.351.346.706.516,1.06-.071-.965-.1-1.938-.16-2.895a40.272,40.272,0,0,1-.2-4.089c-1.378,1.743-3.007,3.308-4.446,5a21.88,21.88,0,0,0-2.95,3.657C86.2,124.094,86.919,125.921,88.138,127.437Z" fill="#5199ce"/>
              <path id="Path_90" data-name="Path 90" d="M109.844,118.193c.223-.448.987-.126.811.343-.429,1.147-.919,2.269-1.433,3.38,2.485-.87,5.088-.9,6.916.611a5.018,5.018,0,0,0-.576-1.446,24.37,24.37,0,0,0-2.743-3.37c-1.319-1.581-2.619-3.195-4-4.727-.085,1.247-.233,2.494-.348,3.731a30.021,30.021,0,0,1-.6,4.924c0,.173.005.349.009.527C108.543,120.843,109.187,119.516,109.844,118.193Z" fill="#316baa"/>
              <path id="Path_91" data-name="Path 91" d="M92.092,121.6a28.874,28.874,0,0,0,3.717,3.418,19.878,19.878,0,0,1-1.893-5.3c-.047-.256.315-.448.446-.186.178.351.346.706.516,1.06-.071-.965-.1-1.938-.16-2.895a40.272,40.272,0,0,1-.2-4.089c-1.378,1.743-3.007,3.308-4.446,5-.216.253-.457.519-.707.792A9.417,9.417,0,0,1,92.092,121.6Z" fill="#316baa"/>
              <path id="Path_92" data-name="Path 92" d="M68.694,138.806a6.384,6.384,0,0,1-4.626,2.9,2.4,2.4,0,0,1-2.194-.981c-.377,2.663-.648,5.33-.879,8a75.111,75.111,0,0,0,9.71,5.475,66.26,66.26,0,0,1-1.071-8.216C69.327,143.594,69,141.2,68.694,138.806Z" fill="#316baa"/>
              <path id="Path_93" data-name="Path 93" d="M142.575,142.852c-.337-2.438-.7-4.872-1.078-7.3-.113-.734-.177-1.6-.262-2.487a18.807,18.807,0,0,1-5.942,8c-.231,1.925-.44,3.851-.6,5.779-.248,2.963-.193,5.948-.44,8.9a70.81,70.81,0,0,0,9.252-4.982C143.227,148.126,142.939,145.486,142.575,142.852Z" fill="#316baa"/>
              <path id="Path_94" data-name="Path 94" d="M134.12,141.995c-5.823,4.365-13.7,7.059-19.539,8.242a59.718,59.718,0,0,1-26.3-.66c-6.529-1.711-15.756-5.4-18.863-12.126-.02.051-.049.1-.07.151.576,2.887,1.047,5.789,1.466,8.707.387,2.693,1.037,5.587.853,8.335a82.038,82.038,0,0,0,32.515,7.146,70.36,70.36,0,0,0,29.137-5.642A52.482,52.482,0,0,1,134.12,141.995Z" fill="#316baa"/>
            </g>
            <path id="Path_95" data-name="Path 95" d="M119.007,52.089a13.314,13.314,0,0,0-2.514-5.107c-.825-1.034-2.4-3.027-3.876-2.975a.277.277,0,0,0-.27.269c-.125,1.179,1.076,2.318,1.693,3.234.032.048.062.1.1.144-1.327-.581-1.77.539-1.862,1.754-1.621-.524-3.611-.865-4.443.518a.547.547,0,0,0,.323.793,1.6,1.6,0,0,0,1.587-.035c.991-.4,2.369.75,3.12,1.267.832.572,1.711-.306,1.625-1.145l.233.291a10.988,10.988,0,0,0,2.357,2.478A1.326,1.326,0,0,0,119.007,52.089Z" fill="#fff"/>
            <path id="Path_96" data-name="Path 96" d="M106.488,50.311a.81.81,0,0,1-.333.311c-.224.079-.207.472.06.442a1.318,1.318,0,0,0,.688-.339C107.2,50.494,106.73,50.014,106.488,50.311Z" fill="#fff"/>
            <path id="Path_97" data-name="Path 97" d="M104.251,50.809a3.477,3.477,0,0,1-.81.154.2.2,0,0,0-.122.3.935.935,0,0,0,1.244.289A.4.4,0,1,0,104.251,50.809Z" fill="#fff"/>
            <path id="Path_98" data-name="Path 98" d="M102.25,50.192a1.46,1.46,0,0,1-.624.256.408.408,0,0,0,0,.781,2.376,2.376,0,0,0,1.058-.008C103.51,51.023,102.91,49.724,102.25,50.192Z" fill="#fff"/>
            <path id="Path_99" data-name="Path 99" d="M99.636,51.574c-.134.032-2.041.373-2.1.14a.892.892,0,0,0-.849-.647,6.287,6.287,0,0,1-2.762-.51.7.7,0,0,0-.843.109,2.085,2.085,0,0,1-.361.248c-.035-.208-.073-.425-.105-.661a1,1,0,0,0-1.468-.6c-.143.088-.274.184-.4.281.2-.845.433-1.685.681-2.506a.43.43,0,0,0-.782-.329,14.08,14.08,0,0,0-2.627,6.777,1.083,1.083,0,0,0,2,.544c.307-.543.571-1.128.9-1.667a.91.91,0,0,0,1.394.538,10.877,10.877,0,0,0,1.309-1.175,5.477,5.477,0,0,0,3.065.711.884.884,0,0,0,.849-.647c.022-.078,1.951-.409,2.138-.479A.067.067,0,0,0,99.636,51.574Z" fill="#fff"/>
            <g id="Group_14" data-name="Group 14">
              <path id="Path_100" data-name="Path 100" d="M93.912,72.236c-2.841-3.112-5.259-6.319-5.035-10.765.018-.366-.521-.35-.56,0-.493,4.421,1.78,8.474,5.223,11.137a.263.263,0,0,0,.372-.372"/>
              <path id="Path_101" data-name="Path 101" d="M95.926,61.885c-.055-.326-.626-.253-.581.078a13.255,13.255,0,0,0,1.433,4.794.232.232,0,0,0,.423-.178,37.413,37.413,0,0,1-1.275-4.694"/>
              <path id="Path_102" data-name="Path 102" d="M81.9,69.782A16.106,16.106,0,0,1,80.346,64c-.015-.242-.388-.244-.377,0a12.791,12.791,0,0,0,1.591,5.979c.133.225.441.028.342-.2"/>
              <path id="Path_103" data-name="Path 103" d="M108.356,67.859a20.6,20.6,0,0,1-5.615-9.812c-.09-.392-.648-.217-.591.163a15.27,15.27,0,0,0,5.859,10.1c.27.2.566-.224.347-.45"/>
              <path id="Path_104" data-name="Path 104" d="M109.973,63.235a31.457,31.457,0,0,1-3.755-6.621c-.118-.322-.628-.193-.522.143A16.316,16.316,0,0,0,109.5,63.6c.237.23.665-.071.471-.363"/>
              <path id="Path_105" data-name="Path 105" d="M120.717,68.226a50.145,50.145,0,0,1-8.477-12.609c-.123-.278-.592-.08-.493.208a27.9,27.9,0,0,0,8.514,12.857.323.323,0,0,0,.456-.456"/>
              <path id="Path_106" data-name="Path 106" d="M123.938,68.565c-1.258-2.094-2.694-4.064-4.138-6.034-.234-.319-.771-.022-.541.315,1.387,2.042,2.776,4.072,4.344,5.979.155.19.458-.054.335-.26"/>
              <path id="Path_107" data-name="Path 107" d="M105.624,145.991c-.168-1.043-1.95-2.162-2.828-1.293a1.9,1.9,0,0,0-1.543.249,2.242,2.242,0,0,0-.675,1.744,2.283,2.283,0,0,0,2.513,2.374c1.281-.2,2.753-1.71,2.533-3.074m-1.144.53a2.372,2.372,0,0,1-1.538,1.459c-.795.155-1.308-.565-1.341-1.289a1.1,1.1,0,0,1,1.1-1.309.3.3,0,0,0,.287.12c.589-.075,1.742.2,1.489,1.019"/>
              <path id="Path_108" data-name="Path 108" d="M91.757,83.173a1.534,1.534,0,0,0-1.039-1.209.291.291,0,0,0-.423-.11c-.071.052-.13.11-.195.166a.912.912,0,0,0-.432.443,4.785,4.785,0,0,0-.87,2.562c-.091,1.028.612,2.27,1.791,1.578a3.635,3.635,0,0,0,1.168-3.43m-1.065.783a2.712,2.712,0,0,1-.1.492,5.233,5.233,0,0,1-.768-.36,3.521,3.521,0,0,1,.367-1.1c.5-.275.512.828.5.969"/>
              <path id="Path_109" data-name="Path 109" d="M113.2,83.173a1.539,1.539,0,0,0-1.039-1.209.293.293,0,0,0-.424-.11c-.072.052-.131.11-.2.166a.919.919,0,0,0-.431.443,4.784,4.784,0,0,0-.869,2.562c-.091,1.028.61,2.27,1.791,1.578a3.64,3.64,0,0,0,1.168-3.43m-1.066.783a2.712,2.712,0,0,1-.1.492,5.243,5.243,0,0,1-.769-.36,3.5,3.5,0,0,1,.369-1.1c.5-.275.51.828.5.969"/>
              <path id="Path_110" data-name="Path 110" d="M91.575,78.336A4.427,4.427,0,0,0,88.2,76.312c-1.327-.022-2.482,1.475-2.856,2.6-.12.361.3.608.6.461.887-.441,1.51-1.761,2.613-1.54a11.961,11.961,0,0,1,2.5,1.02.377.377,0,0,0,.512-.513"/>
              <path id="Path_111" data-name="Path 111" d="M113.509,75.605c-1.722-.571-3.27.695-4.081,2.108a.413.413,0,0,0,.646.5c.9-.8,2.048-1.933,3.333-1.2.875.5,1.178,1.626,1.695,2.426a.4.4,0,0,0,.729-.2,3.59,3.59,0,0,0-2.322-3.637"/>
              <path id="Path_112" data-name="Path 112" d="M102.516,96.275c-.625-.458-2.855-.942-2.729-1.936a6.947,6.947,0,0,1,.536-1.146,3.4,3.4,0,0,0,.236-1.534c-.023-.269-.4-.425-.546-.148-.4.758-.676,1.569-1.083,2.326a1.256,1.256,0,0,0-.107,1.338,4.327,4.327,0,0,0,3.544,1.653.3.3,0,0,0,.149-.553"/>
              <path id="Path_113" data-name="Path 113" d="M104.946,101.567a.387.387,0,0,0-.467-.6,6.918,6.918,0,0,1-3.568,1.081c-1.349,0-2.647-.417-3.982-.536a.266.266,0,0,0-.151.48c.338,1.968,2.565,2.963,4.387,3.058a3.3,3.3,0,0,0,3.4-3.076,3.584,3.584,0,0,0,.384-.4m-4.765,2.229a4.139,4.139,0,0,1-1.976-1.028c-.091-.09-.174-.181-.254-.272a8.2,8.2,0,0,0,5.192.3,2.4,2.4,0,0,1-2.962,1"/>
              <path id="Path_114" data-name="Path 114" d="M144.823,149.9c-.257-2.327-.572-4.648-.887-6.949-.4-2.9-.83-5.786-1.28-8.673-.328-2.11-.333-4.874-1.63-6.672a8.074,8.074,0,0,0-3.674-2.424,65.446,65.446,0,0,0-7.709-2.575c-4.368-1.213-8.926-2.15-13.218-3.683a5.92,5.92,0,0,0,3.927-2.913l.005-.014a13.322,13.322,0,0,0,3.3-3.272c8.122.5,9.08-10.051,9.452-15.865.6-9.321.912-18.792-.961-28a45.2,45.2,0,0,0-9.682-20.742,23.554,23.554,0,0,0-9.147-6.906c-4.038-1.522-8.51-1.478-12.748-1.122-8.514.716-17.862,3.546-22.953,10.892a.309.309,0,0,0-.208.045c-4.758,3.037-6.283,10.347-7.644,15.4a82.505,82.505,0,0,0-3.089,21.136,54.56,54.56,0,0,0,3.612,20.27c1.645,4.143,4.82,10.6,10.374,8.432a.526.526,0,0,0,.195-.137,15.253,15.253,0,0,0,5.492,1,.374.374,0,0,0,.389-.281,6.422,6.422,0,0,0,1.86.849c-4.5.675-8.985,2.281-13.344,3.5-3.683,1.027-8.755,1.707-11.171,5.051-2.381,3.3-2.548,8.335-3.169,12.205a86.565,86.565,0,0,0-1.13,9.444l-.031,1.09,1.137.96c5.292,4.206,11.8,6.968,18.175,8.958A89.8,89.8,0,0,0,104.636,163c13.481.159,27.752-3.161,39.008-10.9l1.317-.911ZM78.491,112.985c-2.1-2.442-2.972-5.363-3.56-8.455-.05-.263-.421-.177-.44.06a13.063,13.063,0,0,0,3.191,9.205,8.188,8.188,0,0,0,1.938,1.693c-6.207.721-8.824-9.292-9.98-13.8a57.949,57.949,0,0,1-1.573-17.7,86.081,86.081,0,0,1,3.172-18.1,60.03,60.03,0,0,1,2.736-8.235,31.2,31.2,0,0,1,3.944-6.115.308.308,0,0,0,.034-.071,31.4,31.4,0,0,1,18.856-9.719A41.448,41.448,0,0,1,109,41.4a19.063,19.063,0,0,1,10.741,5.631c10.781,10.6,12.847,26.619,12.494,41.01-.108,4.379-.284,8.8-.739,13.162-.47,4.505-2.327,9.593-7.168,10.49a20.015,20.015,0,0,0,2.626-7.006.241.241,0,0,0-.464-.128,29.985,29.985,0,0,1-5.261,9.159,58.258,58.258,0,0,0,1.3-7.006.238.238,0,0,0-.458-.125c-.711,2.1-1.3,4.227-1.875,6.365-.784,2.927-1.974,4.441-4.993,5.078a.5.5,0,0,0-.369.273c-1.123-1.374-2.26-2.739-3.445-4.06a6.2,6.2,0,0,0-2.521-2.132c.016-.426.026-.853.014-1.279,6.992-1.159,11.132-6.041,12.926-12.66,2.023-7.456,3.271-16.044,2.488-23.794a2.916,2.916,0,0,0,1.483-.646c.285-.244-.025-.678-.35-.6-2.536.618-5.976-1.208-8.113-2.458-2.492-1.456-5.107-3.483-5.6-6.488-.05-.457-.1-.915-.128-1.38a.356.356,0,0,0-.711,0,18.815,18.815,0,0,0,3.068,11.014c-6.009-2.235-13.821-6.4-14.781-13.094-.031-.217-.395-.21-.432,0a5.84,5.84,0,0,0,.548,3.57c.022,4.493,2.825,8.5,6.459,10.981-1.144.186-2.309.353-3.481.477-4.839-2.251-9.053-8.205-10.208-13.357-.056-.252-.495-.2-.459.062.481,3.583,2.346,6.533,4.437,9.408a13.424,13.424,0,0,0,3.95,4.056,21.557,21.557,0,0,1-7.728-.862c-2.949-.96-4.5-2.706-5.783-5.445-1.028-2.187-1.915-4.44-2.73-6.715a.339.339,0,0,0-.648,0c-1.039,4.388-.362,9.007,3.124,11.867-.823.013-1.645.033-2.456-.029a5.018,5.018,0,0,1-4.29-2.625,17.461,17.461,0,0,1-2.447-7.625c-.031-.248-.45-.374-.492-.067a11.976,11.976,0,0,0,.924,6.34c-.264,4.736.6,9.784,1.142,14.461a89.955,89.955,0,0,0,2.092,12.816,23.727,23.727,0,0,0,5.087,9.988,13.822,13.822,0,0,0,4.368,3.447,13.648,13.648,0,0,0,4.507.7c-.013.068-.012.138-.022.206a.328.328,0,0,0-.039.017,24.515,24.515,0,0,0-4.7,4.42,12.08,12.08,0,0,1-5.13-3.178,18.221,18.221,0,0,1-3.448-4.988c-.118-.255-.559-.074-.458.192a17.865,17.865,0,0,0,3.517,5.984,14.4,14.4,0,0,0,1.289,1.229c-2.71-.731-5.121-.678-7.171-3.064m22.447,22.444a1.7,1.7,0,0,1-.174-.027,2.608,2.608,0,0,1-.527-.213.37.37,0,0,0-.243-.272c-4.6-1.5-8.776-3.647-11.856-7.48-1.219-1.516-1.938-3.343-1.02-5.175a21.88,21.88,0,0,1,2.95-3.657c1.439-1.692,3.068-3.257,4.446-5a40.272,40.272,0,0,0,.2,4.089c.064.957.089,1.93.16,2.895-.17-.354-.338-.709-.516-1.06-.131-.262-.493-.07-.446.186a23.7,23.7,0,0,0,3.557,8.184c.781,1.217,2.436,4.26,4.066,4.99a4.19,4.19,0,0,0-.205.382,4.1,4.1,0,0,0-.4,2.158m.095-4.693c-.423-.491-.822-.994-1.216-1.508a34.843,34.843,0,0,1-2.222-3.263c-.576-.963-1.078-1.957-1.561-2.959a34.848,34.848,0,0,0-.219-5.746,21.329,21.329,0,0,0-.664-5.155.332.332,0,0,0-.135-.505c-1.944-.707-3.806-.728-5.57-1.945a17.424,17.424,0,0,1-4.576-4.9A28.758,28.758,0,0,1,81.231,94.6c-.774-4.032-1.214-8.13-1.686-12.207-.362-3.133-.463-6.417-.963-9.575.125.185.244.376.377.556C81.22,76.4,84.237,75.96,87.7,75.707a.473.473,0,0,0,.237-.875c-3.773-2.1-4.92-6.186-4.449-10.2,1.1,4.272,2.814,9.089,6.971,10.942,5.227,2.328,11.147,1.457,16.546.333a.423.423,0,0,0,.1-.765,13.459,13.459,0,0,1-6.75-9.11,23.171,23.171,0,0,0,3.783,3.763,26.149,26.149,0,0,0,10.939,5.508.52.52,0,0,0,.5-.861,17.326,17.326,0,0,1-3.05-6.078,14.686,14.686,0,0,0,3.816,3.15c1.623.994,4.774,2.876,7.254,2.906-.739,7.107-1,14.175-2.555,21.194-.737,3.325-1.739,6.722-3.931,9.406-2.244,2.75-5.26,3.579-8.314,5.006a.293.293,0,0,0-.516.1,33.85,33.85,0,0,0-.886,6.121,27.133,27.133,0,0,0-.309,5.477,5.628,5.628,0,0,0,.065,1.853c0,.006.008.008.01.014-.2.4-.4.8-.605,1.189q-.924,1.719-1.931,3.392c-.507.849-1.36,2.923-2.312,3.205-.767.227-.732-.007-1.279-.644m1.138,3.039a4.715,4.715,0,0,1,.39-.778c.45-.116.651-.456.992-.928a47.208,47.208,0,0,0,2.714-4.441,64.3,64.3,0,0,0,4.388-9.092c.176-.469-.588-.791-.811-.343-.657,1.323-1.3,2.65-1.957,3.973,0-.178-.007-.354-.009-.527a30.021,30.021,0,0,0,.6-4.924c.115-1.237.263-2.484.348-3.731,1.379,1.532,2.679,3.146,4,4.727a24.37,24.37,0,0,1,2.743,3.37,3.1,3.1,0,0,1,.186,3.457,12.931,12.931,0,0,1-1.508,2.114c-3.414,3.988-7.863,6.371-12.321,8.913-.016-.005-.029-.014-.046-.019a7.887,7.887,0,0,1,.3-1.771m32.081,21.974c.247-2.957.192-5.942.44-8.9.284-3.39.691-6.777,1.163-10.146.055-.389-.513-.575-.609-.167-1.468,6.225-2.579,13.213-1.927,19.617a70.36,70.36,0,0,1-29.137,5.642,82.038,82.038,0,0,1-32.515-7.146c.184-2.748-.466-5.642-.853-8.335-.518-3.607-1.105-7.189-1.888-10.749-.077-.348-.678-.28-.634.086.409,3.453.9,6.894,1.342,10.343a66.26,66.26,0,0,0,1.071,8.216,75.111,75.111,0,0,1-9.71-5.475c.274-3.168.594-6.327,1.093-9.483.6-3.8.74-8.995,3.042-12.2,2.437-3.393,8.444-4.035,12.236-5.1,3.586-1,7.39-1.8,10.886-3.165-.352.443-.7.883-1.04,1.315C85.37,122.44,84.3,124,86.1,126.716a20.1,20.1,0,0,0,13.461,8.9,2.616,2.616,0,0,0,2.219.692.411.411,0,0,0,.328.092c3.206-.582,6.116-2.821,8.6-4.815,2.467-1.976,5.1-4.194,6.441-7.134.879-1.924.241-3.051-.819-4.352a67.728,67.728,0,0,0,10.068,2.981c2.21.583,4.419,1.176,6.593,1.882s5.779,1.481,7.1,3.556c1.167,1.827,1.082,4.944,1.4,7.031.376,2.432.741,4.866,1.078,7.3.364,2.634.652,5.274.929,7.915a70.81,70.81,0,0,1-9.252,4.982"/>
              <path id="Path_115" data-name="Path 115" d="M73.544,74.365a.31.31,0,0,0-.62,0c-.056,2.771-.051,5.551-.056,8.324,0,.329.466.313.5,0a44.869,44.869,0,0,0,.175-8.324"/>
              <path id="Path_116" data-name="Path 116" d="M73.587,85.89c.035-.425-.6-.4-.652,0a27.448,27.448,0,0,0,2.353,15.962.264.264,0,0,0,.481-.2A39.9,39.9,0,0,1,73.587,85.89"/>
              <path id="Path_117" data-name="Path 117" d="M76.718,92.537c-.061-.326-.548-.185-.5.136a25.692,25.692,0,0,0,1.431,5.762.257.257,0,0,0,.5-.137c-.446-1.932-1.066-3.8-1.43-5.761"/>
              <path id="Path_118" data-name="Path 118" d="M128.393,78.368c-.036-.349-.581-.358-.553,0,.521,7.024-.541,13.614-2.184,20.417a.277.277,0,0,0,.534.147c2.463-6.451,2.9-13.751,2.2-20.564"/>
              <path id="Path_119" data-name="Path 119" d="M129.078,69.724a.3.3,0,0,0-.593,0,21.4,21.4,0,0,0,.045,3.59.263.263,0,0,0,.5,0,21.511,21.511,0,0,0,.045-3.59"/>
              <path id="Path_120" data-name="Path 120" d="M80.877,50.947c-1.218,2.311-2.4,5.236-2.07,7.9a.241.241,0,0,0,.471.064c.755-2.6,1.033-5.107,2.185-7.617.18-.39-.378-.734-.586-.343"/>
              <path id="Path_121" data-name="Path 121" d="M85.135,51c-.716,1.636-1.66,3.85-1.284,5.667.056.272.415.215.5,0a20.144,20.144,0,0,0,.533-2.745,18.338,18.338,0,0,1,.827-2.681c.128-.327-.429-.565-.572-.241"/>
              <path id="Path_122" data-name="Path 122" d="M88.162,51.317c-.043.431-.087.861-.13,1.293a2.627,2.627,0,0,0-.016,1.176.261.261,0,0,0,.47.061,2.48,2.48,0,0,0,.158-1.145c.017-.462.035-.923.051-1.385.012-.348-.5-.336-.533,0"/>
            </g>
          </g>
        </g>
      </g>
    </g>
  </g>
</svg>
