<svg xmlns="http://www.w3.org/2000/svg" xmlns:xlink="http://www.w3.org/1999/xlink" width="195" height="295" viewBox="0 0 195 295">
  <defs>
    <clipPath id="clip-Illustration_One">
      <rect width="195" height="295"/>
    </clipPath>
  </defs>
  <g id="Illustration_One" data-name="Illustration One" clip-path="url(#clip-Illustration_One)">
    <g id="Shadow" transform="translate(-47 -135)">
      <ellipse id="_Path_" data-name="&lt;Path&gt;" cx="87.944" cy="11.323" rx="87.944" ry="11.323" transform="translate(56.111 404.915)" fill="#f5f5f5"/>
    </g>
    <g id="Cone_1" data-name="Cone 1" transform="translate(-47 -135)">
      <g id="Group_33" data-name="Group 33">
        <path id="Path_30" data-name="Path 30" d="M113.919,405.455l-13.842-68.929h-5.3L80.931,405.455l-10.173,6.227v1.844h53v-1.844Z" fill="#407bff"/>
        <rect id="Rectangle_626" data-name="Rectangle 626" width="53" height="2.321" transform="translate(70.758 411.682)" fill="#fff" opacity="0.3" style="isolation: isolate"/>
        <path id="Path_31" data-name="Path 31" d="M100.077,336.526h-5.3L80.765,405.252h32.987Z" fill="#fff" opacity="0.3" style="isolation: isolate"/>
        <path id="Path_32" data-name="Path 32" d="M109.314,382.947l-3.149-15.824H88.536l-3.226,15.824Z" fill="#fff" opacity="0.8" style="isolation: isolate"/>
      </g>
    </g>
    <g id="Character_1" data-name="Character 1" transform="translate(-30.201 -139.592)">
      <g id="Group_64" data-name="Group 64">
        <path id="Path_82" data-name="Path 82" d="M138.252,202.237c-10.226,4.515-18.744,13.617-30.185,16.025-5.531,1.232-10.1-1.976-11.669-6.9-1.671-5.5-1.087-10.463-.66-15.606a114.74,114.74,0,0,1,2.9-15.5l.28-1.089c.06-.374.233-.712,1.244-.926a10.981,10.981,0,0,1,8.378,1.7c.869.493.906.863.832,1.2l-.113,1.04c-.139,1.291-.464,4.922-.581,6.27-.254,2.775-.429,5.543-.529,8.243-.082,3.424-.258,7.331.728,10.17.061.154.156.042-.355-.549a4.024,4.024,0,0,0-1.372-.955,4.17,4.17,0,0,0-2.086-.332l.1-.029c4.347-1.347,7.85-4.229,11.769-6.886,5.24-3.656,10.06-7.714,16.331-10.165,9.748-3.176,14.615,10.7,4.988,14.3Z" fill="#263238"/>
        <path id="Path_83" data-name="Path 83" d="M126.786,208.99c-.56.37-1.13.74-1.7,1.11-2.11,1.37-4.3,2.75-6.68,4.07a22.821,22.821,0,0,1,6.49-10.34A15.464,15.464,0,0,1,126.786,208.99Z" opacity="0.4"/>
        <path id="Path_84" data-name="Path 84" d="M170.5,336.888c-1.513-36.442-.081-59.3-.576-76.418h0c.907-4.858.9-8.823-.985-9.042-3.338-.387-43.719-1.829-43.785-.963a40.062,40.062,0,0,0-.637,8.289,5.69,5.69,0,0,0,.1.582c-1.844,10.6-3.793,34.9-1.363,71.069,1.68,24.95,1.97,66.87,1.97,66.87l11.86.52a311.569,311.569,0,0,0,6.9-52.74q.12-3.795.11-7.59c.7-4.423,1.437-8.574,2.193-12.5.749,2.954,1.541,5.985,2.393,9.113,6.571,24.128,15.14,65.169,15.14,65.169l11.726-1.831S176.47,365.792,170.5,336.888Z" fill="#407bff"/>
        <path id="Path_85" data-name="Path 85" d="M111.825,416.374s12.128-3.575,13.016-8.35a.828.828,0,0,1,.979-.7l8.808,1.473a1.164,1.164,0,0,1,.9.786l2.688,8.57-2.491.078L134.8,417l-1.044,1.291c-13.521.423-19.369.461-22.072-.3C111.26,416.814,111.825,416.374,111.825,416.374Z" fill="#263238"/>
        <g id="Group_49" data-name="Group 49">
          <path id="Path_86" data-name="Path 86" d="M169.371,190.193a142.751,142.751,0,0,0-29.227-3.966A16.411,16.411,0,0,0,123.5,200.575c-1.885,14.967,1.411,20.279.939,43.578-2.411,2.421-1.389,6.477.291,7.112,14.113,5.339,36.289,3.993,43.676,3.226,3.252-.338,1.971-4.784,1.971-4.784,1.026-7.756-.617-7.341,1.038-16.878,2.518-9.306,2.428-16.562,5.907-28.9A11.1,11.1,0,0,0,169.371,190.193Z" fill="#263238"/>
          <path id="Path_87" data-name="Path 87" d="M176.489,207.051c-1.019,4.02-1.669,7.5-2.209,10.74-4.46-3-4.23-13.96-4.23-13.96A17.065,17.065,0,0,1,176.489,207.051Z" opacity="0.4"/>
        </g>
        <path id="Path_88" data-name="Path 88" d="M135.945,410.923c-2.252.168-9.622.181-11.075-.712s-.6-15.017-.6-15.017,12.663-.119,13.62.968S135.945,410.923,135.945,410.923Z" fill="#263238"/>
        <g id="Group_50" data-name="Group 50">
          <path id="Path_89" data-name="Path 89" d="M133.673,255.07c7.121.1,13.224.243,18.262.393.062-1.1.142-2.887.082-3.886-6.31-.209-13.03-.325-18.128-.343A17.456,17.456,0,0,0,133.673,255.07Z" fill="#263238"/>
          <path id="Path_90" data-name="Path 90" d="M131.774,251.233c-2.675.007-4.7.048-5.651.123a.572.572,0,0,0-.523.507c-.075.614-.2,1.727-.23,2.52a.582.582,0,0,0,.58.6c2,.017,3.929.038,5.8.062A22.407,22.407,0,0,1,131.774,251.233Z" fill="#263238"/>
          <path id="Path_91" data-name="Path 91" d="M169.224,253.041a.563.563,0,0,0-.468-.418c-2.781-.407-8.211-.729-14.308-.96a25.254,25.254,0,0,1-.3,3.868c8.109.26,13.048.524,14.565.611a.57.57,0,0,0,.6-.487A6.942,6.942,0,0,0,169.224,253.041Z" fill="#263238"/>
        </g>
        <path id="Path_92" data-name="Path 92" d="M175.592,410.3c-2.174.609-8.431-.348-10.032-.936s-3.09-11.968-3.09-11.968,12.39-2.617,13.543-1.74S175.592,410.3,175.592,410.3Z" fill="#263238"/>
        <path id="Path_93" data-name="Path 93" d="M151.85,416.374s12.129-3.575,13.016-8.35a.828.828,0,0,1,.979-.7l8.808,1.473a1.166,1.166,0,0,1,.9.786l2.687,8.57-2.491.078-.922-1.23-1.044,1.291c-13.521.423-19.369.461-22.071-.3C151.285,416.814,151.85,416.374,151.85,416.374Z" fill="#263238"/>
        <g id="Group_52" data-name="Group 52">
          <path id="Path_94" data-name="Path 94" d="M172.306,232.19a14.027,14.027,0,0,0-.9,4.49c.01.07.02.14.03.23.05.55.14,1.51.25,2.72.03.41.07.86.11,1.32.17,1.92.36,4.22.55,6.38.33,4.01.63,7.57.63,7.57l-30.4-1.68-1.29-5.99-2.37,5.99h-16.81l1.57-8.99.26-1.46-.28-4.65-.03-.52-.22-3.44-.33-5.44-.04-.66-.13-2.13c-.6-19.56,8.77-38.81,8.77-38.81a15.384,15.384,0,0,1,3.2-.91v-.01a22.359,22.359,0,0,1,5.93-.23,19.238,19.238,0,0,1,2.54.38c-5.79,7.55,0,18.95,0,18.95a60.353,60.353,0,0,1,21.95-16.23,20.066,20.066,0,0,1,4.27.35,14.182,14.182,0,0,1,3.91,1.31,7.645,7.645,0,0,1,2.11,1.51c-10.31,18.89-.92,30.48-.92,30.48a54.1,54.1,0,0,1-1.97,8.19C172.566,231.35,172.436,231.78,172.306,232.19Z" fill="#407bff"/>
          <path id="Path_95" data-name="Path 95" d="M157.816,230.46c4.6.45,9.46,1.02,14.49,1.73a14.027,14.027,0,0,0-.9,4.49c.01.07.02.14.03.23.05.55.14,1.51.25,2.72a407.089,407.089,0,0,0-48.06-2.03l-.22-3.44-.33-5.44c1.12,0,2.4,0,3.82.02.48-25.6,5.21-37.63,7.98-42.53v-.01a22.359,22.359,0,0,1,5.93-.23c-8.24,8.8-9.04,33.96-9.06,42.87,5.73.15,12.92.48,21.07,1.17.8-9.41,4.04-33.46,16.75-40.59a14.182,14.182,0,0,1,3.91,1.31C169.3,194.5,160.186,205.43,157.816,230.46Z" fill="#fff" opacity="0.6" style="isolation: isolate"/>
          <g id="Group_51" data-name="Group 51" opacity="0.2">
            <path id="Path_96" data-name="Path 96" d="M143.35,205.3c-.238,1.745-.5,3.482-.7,5.227-.223,1.739-.425,3.483-.524,5.222-.214,3.522-.571,7.01-.809,10.512-.269,3.5-.474,7-.588,10.5-.063,1.75-.057,3.5,0,5.25a31.8,31.8,0,0,0,.556,5.221,36.923,36.923,0,0,1-1.329-10.476c-.066-3.53.114-7.055.362-10.568.264-3.511.648-7.017,1.042-10.5A74.364,74.364,0,0,1,143.35,205.3Z"/>
          </g>
        </g>
        <g id="Group_54" data-name="Group 54">
          <g id="Group_53" data-name="Group 53">
            <path id="Path_97" data-name="Path 97" d="M174.145,247.966l-8.386,1.276,4.288,9.226s7.453-2.078,6.989-6.216Z" fill="#ebb376"/>
            <path id="Path_98" data-name="Path 98" d="M160.482,256.3l2.048,2.98a2.938,2.938,0,0,0,3.672,1l3.845-1.806-4.288-9.226-4.468,2.934A2.938,2.938,0,0,0,160.482,256.3Z" fill="#ebb376"/>
          </g>
          <path id="Path_99" data-name="Path 99" d="M176.682,195.234c7.283,7.659,19.463,20.526,20.831,31.212.912,10.545-11.366,21.512-18.8,27.429l-.834.64c-.265.24-.541.437-1.509-.073-2.773-1.4-4.388-3.844-5.555-6.5-.467-.941-.246-1.182-.017-1.381,4.459-4.962,9.629-10.417,12.582-16.262a5.352,5.352,0,0,0,.688-2.358c.007.084-.05-.026-.042-.033-1.548-3.977-4.709-7.535-7.524-10.937-3.219-3.7-6.852-7.506-10.367-10.877a7.572,7.572,0,1,1,10.548-10.861Z" fill="#263238"/>
          <path id="Path_100" data-name="Path 100" d="M173.306,220.51l-9.24-4.69a14.985,14.985,0,0,1-3.22-2.2,14.037,14.037,0,0,1-3.85-5.6,14.62,14.62,0,0,1,8.16-18.9c.09-.03.14-.05.14-.05a20.066,20.066,0,0,1,4.27.35c.21.04.41.08.61.13a13.782,13.782,0,0,1,1.62.46c.17.06.32.12.47.17a12.908,12.908,0,0,1,1.21.55,7.375,7.375,0,0,1,2.12,1.51C167.926,206.29,171.156,216.3,173.306,220.51Z" fill="#407bff"/>
          <path id="Path_101" data-name="Path 101" d="M173.476,190.73c-3.09,2.79-8.87,9.48-12.63,22.89a14.037,14.037,0,0,1-3.85-5.6c2.51-7.77,6.43-15.16,12.57-18.6.21.04.41.08.61.13a13.782,13.782,0,0,1,1.62.46c.17.06.32.12.47.17A12.908,12.908,0,0,1,173.476,190.73Z" fill="#fff" opacity="0.6" style="isolation: isolate"/>
        </g>
        <g id="Group_56" data-name="Group 56">
          <path id="Path_102" data-name="Path 102" d="M65.876,197.373l-1.632-.514,0-18.98,131.106-25.12,3.475.539-.766,18.66Z" fill="#263238"/>
          <path id="Path_103" data-name="Path 103" d="M65.876,197.373l-1.632-.514,0-18.98,131.106-25.12,3.475.539-.766,18.66Z" fill="#fff" opacity="0.6" style="isolation: isolate"/>
          <path id="Path_104" data-name="Path 104" d="M198.057,172,65.873,197.378l.768-18.7,132.184-25.383Z" fill="#263238"/>
          <path id="Path_105" data-name="Path 105" d="M198.821,153.3l-.767,18.694L65.876,197.373l.768-18.694Z" fill="#fff" opacity="0.4" style="isolation: isolate"/>
          <g id="Group_55" data-name="Group 55" opacity="0.3">
            <path id="Path_106" data-name="Path 106" d="M198.253,167.116l-.022.532q-13.913,3.578-27.81,6.472-18.207,3.843-36.361,6.641l-36.3,5.751q-15.842,2.268-31.58,3.525l.015-.366,31.646-4.087c6.026-.761,12.061-1.458,18.1-2.355s12.092-1.948,18.155-3.079q18.174-3.424,36.351-7.167Q184.348,170.1,198.253,167.116Z"/>
            <path id="Path_107" data-name="Path 107" d="M99.3,188.118l-1.631.83a49.946,49.946,0,0,1-9.781,3.593q-4.92,1.275-9.823,2.337c-3.275.695-6.545,1.29-9.814,1.841-.788.129-1.576.258-2.363.377l.03-.732L78.081,193.7c3.265-.726,6.539-1.4,9.785-2.176a65.648,65.648,0,0,0,7.739-2.3c-2.444.294-4.878.618-7.327,1.022-3.107.487-6.221,1.129-9.339,1.607-3.106.442-6.187.8-9.286,1.091-.786.073-1.548.1-2.323.16-.423.026-.858.055-1.282.07l.027-.643c1.22-.113,2.456-.328,3.676-.442,3.082-.361,6.2-.861,9.29-1.168,3.092-.374,6.181-.67,9.275-1.078,3.092-.385,6.2-.882,9.311-1.436Z"/>
            <path id="Path_108" data-name="Path 108" d="M184.688,174.558l-13.961,2.681-1.862.258c-4.34.658-8.692,1.318-13.049,2.1l-13.084,2.436q-6.553,1.226-13.1,2.306c-4.364.707-8.718,1.158-13.052,1.9a38.917,38.917,0,0,0-11.909,3.683l-2.4.461c.411-.233.823-.477,1.245-.712a34.87,34.87,0,0,1,13.132-4.358c4.381-.61,8.657-.695,13.009-1.365,4.349-.594,8.723-1.532,13.088-2.514,8.733-2.062,17.512-3.934,26.22-5.09C174.23,175.6,179.467,175.021,184.688,174.558Z"/>
            <path id="Path_109" data-name="Path 109" d="M190.577,171.745c-1.123.314-2.257.642-3.381.979.042-.008.1-.007.148-.018a22.242,22.242,0,0,0,2.789-.447,41.6,41.6,0,0,1,5.665-1.231,21.314,21.314,0,0,1,2.3-.078l-.041,1.008c-.8-.011-1.607-.01-2.4.021a42.076,42.076,0,0,0-5.526.677c-1.883.3-3.743.521-5.63.883l-2.281.449,2.282-.966c1.99-.844,4-1.626,6.025-2.278s4.037-1.237,6.066-1.715q.8-.186,1.6-.34l-.047,1.141c-.513.121-1.036.254-1.549.375C194.586,170.689,192.588,171.172,190.577,171.745Z"/>
            <path id="Path_110" data-name="Path 110" d="M198.372,164.235l-.021.509q-14.138,3.21-28.272,6.122c-6.069,1.275-12.146,2.486-18.211,3.684s-12.136,2.242-18.2,3.307l-9.1,1.614c-3.031.418-6.051.833-9.073,1.292-6.052.876-12.123,1.954-18.164,2.795q-15.552,2.146-31.052,3.809l.016-.4q15.579-2.413,31.117-4.337c6.034-.7,12.069-1.4,18.11-2.246,3.019-.393,6.04-.852,9.072-1.3,3.025-.537,6.067-1.22,9.1-1.835l36.407-7.519Q184.245,166.85,198.372,164.235Z"/>
            <path id="Path_111" data-name="Path 111" d="M186.588,163.573c-14.028,1.2-28.1,2.581-42.247,4.77a179.121,179.121,0,0,0-21.3,4.431c-3.552,1-7.1,2.066-10.632,3.229l-5.286,1.773c-1.772.659-3.526,1.392-5.277,2.069l-1.332.52,1.338-.147c4.111-.471,8.235-1.23,12.355-1.933l9.023-1.37,9.03-1.294c6.01-.868,12.034-1.827,18.076-2.954s12.069-2.428,18.113-3.874c3.023-.735,6.046-1.48,9.071-2.27s6.031-1.664,9.051-2.573l1.712-.516Zm-4.561,1.37c-1.507.4-3,.841-4.521,1.2q-4.521,1.147-9.041,2.065c-6.037,1.27-12.056,2.359-18.087,3.484L132.3,175.043l-9.045,1.637-9.038,1.494-6.173.966c-1.6.24-3.178.423-4.749.571,1.288-.467,2.576-.935,3.873-1.371l5.309-1.558c3.53-1.008,7.062-2.026,10.6-2.925,3.537-.933,7.073-1.787,10.591-2.485,3.539-.713,7.063-1.29,10.6-1.881,7.058-1.158,14.108-2.127,21.157-3.084,6.463-.835,12.915-1.656,19.348-2.276C183.857,164.416,182.947,164.69,182.027,164.943Z"/>
            <path id="Path_112" data-name="Path 112" d="M198.53,160.389l-.015.366c-10.16.995-20.3,1.81-30.423,2.621-5.869.522-11.738,1.067-17.63,1.879-5.892.835-11.8,1.893-17.72,3.337s-11.858,3.189-17.772,5.084c-2.947.939-5.9,1.967-8.83,3.113s-5.841,2.408-8.84,3.358c-6.008,1.835-11.917,2.332-17.826,3.3q-6.542.942-13.1,1.812l.016-.388c4.389-.8,8.766-1.551,13.152-2.283l8.878-1.453a70.011,70.011,0,0,0,8.822-1.891c2.932-.849,5.867-2.006,8.828-3.048s5.917-1.972,8.874-2.9c5.931-1.788,11.845-3.66,17.781-5.305,11.894-3.329,23.8-4.856,35.532-5.779C178.375,161.434,188.454,160.862,198.53,160.389Z"/>
            <path id="Path_113" data-name="Path 113" d="M117.547,170.135l-1.923.743c-4.512,1.724-9.011,3.391-13.529,5.017-2.263.786-4.528,1.6-6.809,2.3s-4.566,1.251-6.839,1.764c-4.548,1.049-9.106,1.836-13.635,2.453q-4.2.558-8.357.846l.02-.487c2.8-.361,5.6-.746,8.4-1.207,4.522-.692,9.054-1.607,13.6-2.534,2.261-.478,4.53-.881,6.786-1.479s4.535-1.266,6.788-2.04c3.869-1.281,7.726-2.77,11.556-4.351-4.094.555-8.213,1.2-12.316,1.738-4.326.545-8.664,1.114-12.978,1.623l15.007-2.881,5.185-.611c2.369-.279,4.745-.45,7.113-.7Z"/>
            <path id="Path_114" data-name="Path 114" d="M102.317,174.082l-1.5.5q-4.918,1.589-9.859,2.663c-3.295.688-6.583,1.2-9.846,1.6-3.264.429-6.507.865-9.788,1.45-1.586.261-3.182.5-4.774.653l.018-.443c1.6-.24,3.195-.558,4.794-.876,1.632-.336,3.285-.675,4.924-.946s3.277-.486,4.9-.711c3.276-.464,6.516-.833,9.789-1.484,2.6-.477,5.214-1.056,7.822-1.743-2.264.269-4.58.791-6.854,1.085-2.958.447-5.921,1.016-8.866,1.416-2.947.423-5.888.735-8.832,1.092-2.549.269-5.087.537-7.623.749l.008-.189c2.566-.437,5.12-.818,7.684-1.2,2.945-.4,5.892-.835,8.834-1.169l8.819-1.023c2.941-.29,5.9-1.078,8.861-1.3Z"/>
            <path id="Path_115" data-name="Path 115" d="M198.665,157.1l-.026.632c-4.371.619-8.737,1.1-13.062,1.354-3.051.157-6.075.155-9.128.345-3.052.147-6.12.45-9.2.789-4.548.543-9.087,1.118-13.638,1.761l11.766-2.259c.657-.039,1.3-.075,1.96-.113,3.053-.168,6.1-.3,9.17-.563,3.054-.223,6.136-.6,9.2-.9,1.528-.117,3.068-.292,4.6-.4s3.065-.215,4.593-.365C196.151,157.284,197.414,157.185,198.665,157.1Z"/>
            <path id="Path_116" data-name="Path 116" d="M198.774,154.428l-.027.654c-.628.109-1.254.175-1.881.24-1.486.142-2.95.247-4.409.253s-2.893-.1-4.354-.065c-.339.01-.688.022-1.027.043l3.464-.665c.69-.089,1.382-.178,2.071-.244C194.7,154.44,196.732,154.457,198.774,154.428Z"/>
          </g>
          <path id="Path_117" data-name="Path 117" d="M64.24,177.879l2.394,1.021-.758,18.472-1.632-.514Z" opacity="0.4"/>
        </g>
        <g id="Group_58" data-name="Group 58">
          <path id="Path_118" data-name="Path 118" d="M70.276,196.785l-1.608-.583.8-18.963,132.058-19.512,3.449.686-1.56,18.611Z" fill="#263238"/>
          <path id="Path_119" data-name="Path 119" d="M70.276,196.785l-1.608-.583.8-18.963,132.058-19.512,3.449.686-1.56,18.611Z" fill="#fff" opacity="0.6" style="isolation: isolate"/>
          <path id="Path_120" data-name="Path 120" d="M203.417,177.062,70.273,196.79l1.564-18.651,133.145-19.728Z" fill="#263238"/>
          <path id="Path_121" data-name="Path 121" d="M204.978,158.414l-1.563,18.644L70.276,196.785l1.563-18.644Z" fill="#fff" opacity="0.4" style="isolation: isolate"/>
          <g id="Group_57" data-name="Group 57" opacity="0.3">
            <path id="Path_122" data-name="Path 122" d="M203.822,172.2l-.044.531q-14.055,2.982-28.061,5.281-18.354,3.064-36.611,5.087l-36.515,4.2q-15.926,1.59-31.7,2.176l.031-.365,31.791-2.735c6.053-.5,12.112-.943,18.187-1.581s12.164-1.432,18.27-2.3q18.3-2.646,36.623-5.612Q189.8,174.583,203.822,172.2Z"/>
            <path id="Path_123" data-name="Path 123" d="M104.062,188.963l-1.664.76a50.039,50.039,0,0,1-9.925,3.173c-3.314.709-6.612,1.351-9.914,1.916s-6.594,1.01-9.884,1.421c-.792.1-1.585.191-2.376.276l.061-.73,12.266-2.144c3.293-.587,6.593-1.119,9.869-1.758a65.7,65.7,0,0,0,7.83-1.967c-2.454.189-4.9.409-7.364.709-3.125.354-6.264.862-9.4,1.207-3.122.31-6.215.539-9.324.694-.788.04-1.551.033-2.327.061-.425.008-.861.018-1.284.016l.054-.641c1.224-.062,2.467-.224,3.692-.286,3.094-.229,6.231-.6,9.33-.771,3.106-.242,6.2-.406,9.313-.681,3.106-.253,6.233-.618,9.364-1.038Z"/>
            <path id="Path_124" data-name="Path 124" d="M189.952,179.052l-14.063,2.084-1.87.179c-4.365.472-8.741.946-13.127,1.541l-13.177,1.876q-6.6.945-13.186,1.747c-4.391.519-8.76.785-13.122,1.344a38.887,38.887,0,0,0-12.055,3.172l-2.416.358c.422-.215.844-.441,1.275-.658a34.881,34.881,0,0,1,13.305-3.794c4.4-.424,8.679-.326,13.056-.811,4.37-.407,8.78-1.159,13.183-1.953,8.813-1.688,17.664-3.185,26.413-3.968C179.459,179.647,184.716,179.293,189.952,179.052Z"/>
            <path id="Path_125" data-name="Path 125" d="M195.956,176.493c-1.136.267-2.283.546-3.421.834.043-.006.1,0,.15-.011a22.38,22.38,0,0,0,2.805-.328A41.652,41.652,0,0,1,201.2,176a21.42,21.42,0,0,1,2.3.02l-.085,1.006c-.8-.045-1.605-.079-2.4-.081a41.931,41.931,0,0,0-5.55.44c-1.894.215-3.762.361-5.662.642l-2.3.352,2.32-.868c2.025-.758,4.066-1.454,6.117-2.019s4.086-1.064,6.133-1.455q.809-.151,1.614-.272l-.1,1.139c-.517.1-1.046.209-1.563.308C200.005,175.609,197.99,176.006,195.956,176.493Z"/>
            <path id="Path_126" data-name="Path 126" d="M204.063,169.322l-.043.508q-14.261,2.6-28.506,4.912c-6.118,1.015-12.241,1.966-18.352,2.9s-12.22,1.724-18.32,2.529l-9.157,1.226c-3.046.288-6.081.574-9.119.9-6.084.617-12.2,1.436-18.267,2.019q-15.629,1.48-31.187,2.482l.034-.4q15.667-1.749,31.273-3.008c6.059-.439,12.119-.89,18.189-1.473,3.033-.264,6.072-.594,9.12-.914,3.045-.408,6.113-.961,9.165-1.446l36.694-5.961Q189.837,171.332,204.063,169.322Z"/>
            <path id="Path_127" data-name="Path 127" d="M192.318,168.159c-14.066.6-28.179,1.381-42.412,2.966a179.009,179.009,0,0,0-21.467,3.519c-3.591.849-7.177,1.762-10.76,2.773l-5.357,1.547c-1.8.583-3.581,1.24-5.36,1.842l-1.353.463,1.343-.09c4.128-.3,8.28-.878,12.427-1.4l9.073-.984,9.077-.909c6.041-.611,12.1-1.312,18.185-2.181s12.161-1.911,18.261-3.1c3.051-.6,6.1-1.221,9.159-1.881s6.1-1.4,9.153-2.186l1.733-.442Zm-4.615,1.175c-1.522.334-3.039.712-4.568,1q-4.566.956-9.121,1.679c-6.086,1.011-12.145,1.843-18.219,2.71L137.588,177.3l-9.106,1.251-9.094,1.107-6.208.7c-1.605.172-3.194.288-4.77.368,1.307-.411,2.614-.824,3.928-1.2l5.37-1.33c3.571-.857,7.142-1.724,10.714-2.472,3.575-.78,7.143-1.484,10.688-2.031,3.566-.561,7.111-.988,10.668-1.428,7.1-.856,14.186-1.523,21.27-2.18,6.493-.558,12.974-1.1,19.428-1.449C189.554,168.885,188.633,169.119,187.7,169.334Z"/>
            <path id="Path_128" data-name="Path 128" d="M204.385,165.487l-.031.364c-10.193.561-20.36.944-30.506,1.323-5.886.271-11.774.565-17.694,1.126-5.923.583-11.874,1.389-17.847,2.579s-11.983,2.681-17.972,4.322c-2.984.813-5.975,1.715-8.955,2.735s-5.938,2.157-8.975,2.978c-6.08,1.577-12.006,1.822-17.95,2.539q-6.576.663-13.167,1.253l.033-.387q6.628-.917,13.238-1.721l8.931-1.073a69.962,69.962,0,0,0,8.9-1.514c2.966-.723,5.947-1.754,8.949-2.669s6-1.718,8.99-2.521c6-1.534,11.99-3.152,17.991-4.543,12.025-2.819,23.985-3.838,35.746-4.26C184.2,165.672,194.3,165.53,204.385,165.487Z"/>
            <path id="Path_129" data-name="Path 129" d="M123.06,171.774l-1.953.66c-4.581,1.531-9.147,3-13.73,4.436-2.295.689-4.592,1.4-6.9,2.005s-4.616,1.055-6.909,1.471c-4.588.854-9.175,1.447-13.727,1.87q-4.215.379-8.385.489l.041-.486c2.808-.241,5.63-.507,8.446-.848,4.548-.5,9.114-1.219,13.692-1.952,2.28-.381,4.564-.687,6.843-1.188s4.585-1.073,6.868-1.749c3.921-1.116,7.838-2.439,11.731-3.856-4.114.381-8.256.852-12.379,1.212-4.345.36-8.7.744-13.034,1.069l15.115-2.239,5.206-.39c2.379-.178,4.76-.247,7.136-.391Z"/>
            <path id="Path_130" data-name="Path 130" d="M107.676,175.068l-1.52.433c-3.321.918-6.649,1.662-9.963,2.24-3.322.547-6.629.917-9.906,1.184-3.279.29-6.537.587-9.84,1.033-1.6.192-3.2.365-4.8.449l.037-.442c1.605-.173,3.216-.422,4.827-.672,1.644-.265,3.31-.534,4.96-.735s3.294-.346,4.929-.5c3.293-.324,6.546-.555,9.844-1.066,2.617-.366,5.254-.833,7.889-1.409-2.273.173-4.609.6-6.894.793-2.975.32-5.959.762-8.919,1.037-2.961.3-5.914.484-8.87.714-2.558.161-5.105.32-7.647.424l.015-.188c2.583-.328,5.15-.6,7.728-.872,2.96-.275,5.922-.583,8.877-.791l8.853-.647c2.951-.164,5.943-.826,8.91-.927Z"/>
            <path id="Path_131" data-name="Path 131" d="M204.66,162.2l-.053.63c-4.394.433-8.775.722-13.107.8-3.056.027-6.077-.1-9.135-.044-3.055.016-6.133.188-9.225.4-4.567.349-9.126.73-13.7,1.178l11.852-1.756,1.963-.029c3.057-.038,6.11-.043,9.185-.171,3.061-.094,6.156-.334,9.234-.506,1.531-.052,3.078-.161,4.608-.2s3.071-.084,4.6-.169C202.14,162.283,203.406,162.237,204.66,162.2Z"/>
            <path id="Path_132" data-name="Path 132" d="M204.883,159.541l-.055.652c-.632.083-1.261.121-1.89.16-1.49.079-2.957.122-4.415.065s-2.886-.227-4.347-.251c-.339,0-.689-.007-1.029,0l3.489-.517c.694-.059,1.388-.119,2.081-.156C200.815,159.38,202.842,159.483,204.883,159.541Z"/>
          </g>
          <path id="Path_133" data-name="Path 133" d="M69.471,177.24l2.349,1.123-1.545,18.423-1.608-.583Z" opacity="0.4"/>
        </g>
        <g id="Group_59" data-name="Group 59">
          <path id="Path_134" data-name="Path 134" d="M161.439,171.44a39.614,39.614,0,0,0,1.09,17.117,1.061,1.061,0,0,1-.405,1.152,20.891,20.891,0,0,1-14.518,3.228c-6.189-.714-5.585-2.6-3.842-4.584a2.548,2.548,0,0,1,.908-.647c4.551-1.962,5.135-5.3,4.217-7.477Z" fill="#ebb376"/>
          <path id="Path_135" data-name="Path 135" d="M161.436,171.442l-12.551,8.788a4.8,4.8,0,0,1-.317,4.322,9.464,9.464,0,0,0,6.76-1.484c3.211-2.086,4.573-4.865,5.822-8.873C161.213,173.322,161.313,172.411,161.436,171.442Z" opacity="0.2"/>
        </g>
        <g id="Group_63" data-name="Group 63">
          <g id="Group_60" data-name="Group 60">
            <path id="Path_136" data-name="Path 136" d="M171.362,168.663c-2.829.224-18.556-4.211-21.721-7.787s13.385-6.766,18.359-3.57S174.47,168.417,171.362,168.663Z" fill="#407bff"/>
            <path id="Path_137" data-name="Path 137" d="M171.362,168.663c-2.829.224-18.556-4.211-21.721-7.787s13.385-6.766,18.359-3.57S174.47,168.417,171.362,168.663Z" opacity="0.4" style="isolation: isolate"/>
          </g>
          <path id="Path_138" data-name="Path 138" d="M145.906,155.382c-2.1,2.18-.037,5.281-.277,7.535s-.824,5.172,2.279,2.25S149.164,152.383,145.906,155.382Z" fill="#263238"/>
          <path id="Path_139" data-name="Path 139" d="M165.466,166.59c-1.47,7.47-.55,8.82-4.88,12.15a16.854,16.854,0,0,1-3.12,1.91c-6.06,2.88-12.96,1.8-13.25-4.84a49.911,49.911,0,0,1,.03-5.02c.36-6.82,2.24-14.98,8.39-16.51A10.493,10.493,0,0,1,165.466,166.59Z" fill="#ebb376"/>
          <path id="Path_140" data-name="Path 140" d="M161.786,172a14.747,14.747,0,0,1-4.32,8.65c-6.06,2.88-12.96,1.8-13.25-4.84a49.911,49.911,0,0,1,.03-5.02,2.7,2.7,0,0,0,1.32,1.99,4.4,4.4,0,0,1,4.23-.78s3.48-2.55,5.7-1.4c0,0,3.98-1.16,5.01-3.36Z" fill="#263238"/>
          <path id="Path_141" data-name="Path 141" d="M164.022,171.591c-3.54,1.832-4.329-3.033-4.069-3.389,1.137-1.556,1.174-2.94.148-6.119s5.426-6.354,9.856-4.717c4.078,1.508-.346,4.474.013,7.217C170.61,169.472,166.874,170.114,164.022,171.591Z" fill="#263238"/>
          <path id="Path_142" data-name="Path 142" d="M168.242,172.081a6.936,6.936,0,0,1-3.958,3.219c-2.132.608-2.987-1.513-2.218-3.713.692-1.979,2.635-4.681,4.69-4.314C168.781,167.635,169.364,170.123,168.242,172.081Z" fill="#ebb376"/>
          <path id="Path_143" data-name="Path 143" d="M156.247,166.14c-.111.64-.412.657-.83.581s-.8-.216-.684-.856.538-1.1.957-1.021S156.357,165.5,156.247,166.14Z" fill="#263238"/>
          <path id="Path_144" data-name="Path 144" d="M148.318,165.587c-.11.64-.411.657-.829.581s-.8-.217-.685-.857.539-1.1.957-1.02S148.429,164.947,148.318,165.587Z" fill="#263238"/>
          <path id="Path_145" data-name="Path 145" d="M149.572,165.458a17.628,17.628,0,0,1-2.834,3.957,2.9,2.9,0,0,0,2.32.726Z" fill="#d58745"/>
          <path id="Path_146" data-name="Path 146" d="M157.82,163.412a.375.375,0,0,0,.182-.065.38.38,0,0,0,.1-.53,3.827,3.827,0,0,0-3.042-1.726.378.378,0,0,0-.37.39.385.385,0,0,0,.391.373h0a3.058,3.058,0,0,1,2.394,1.393A.387.387,0,0,0,157.82,163.412Z" fill="#263238"/>
          <path id="Path_147" data-name="Path 147" d="M145.608,162.193a.377.377,0,0,0,.353-.071,3,3,0,0,1,2.665-.671.377.377,0,0,0,.473-.252.386.386,0,0,0-.252-.478,3.754,3.754,0,0,0-3.374.811.382.382,0,0,0-.048.538A.392.392,0,0,0,145.608,162.193Z" fill="#263238"/>
          <path id="Path_148" data-name="Path 148" d="M149.67,174.207a10.8,10.8,0,0,1-1.374-.091.375.375,0,1,1,.1-.744c4.274.553,5.645-1.734,5.7-1.832a.375.375,0,0,1,.653.369C154.688,172.013,153.406,174.207,149.67,174.207Z" fill="#ebb376"/>
          <g id="Group_61" data-name="Group 61">
            <path id="Path_149" data-name="Path 149" d="M166.115,159.825s-4.913,20.586-15.235,22.718l-2.019-.61s5.5.092,9.326-6.047,6.435-16.386,6.435-16.386Z"/>
            <path id="Path_150" data-name="Path 150" d="M151.9,182.26a5.727,5.727,0,0,0-3.013-1.712,4.61,4.61,0,0,0-2.563,0,3.926,3.926,0,0,0,2.512,1.921" fill="#407bff"/>
          </g>
          <g id="Group_62" data-name="Group 62">
            <path id="Path_151" data-name="Path 151" d="M141.294,155.817c5.7,6.463,20.314,2.085,25.568,5.783,5.22,3.673,4.509,7.021,4.5,7.063,3.651,1.1,1.568-4.423,1.568-4.423,3.627-10.7-3.582-17.026-14.507-18.4-10.234-1.291-12.854,8.131-12.854,8.131Z" fill="#407bff"/>
            <path id="Path_152" data-name="Path 152" d="M145.569,153.967c2.372,3.8,16.711,3.086,22.1,4.849s5.257,5.424,5.257,5.424c3.627-10.7-3.582-17.026-14.507-18.4C148.189,144.545,145.569,153.967,145.569,153.967Z" opacity="0.2" style="isolation: isolate"/>
            <path id="Path_153" data-name="Path 153" d="M166.01,148.459c-4.37-1.529-9.146,1.768-10.985,4.189s-5.815,1.446-5.948-1.3a4.012,4.012,0,0,1,.4-1.827,7.546,7.546,0,0,1,6.946-4.1c5.12-.044,13.892.863,15.67,7.377C172.1,152.8,170.507,150.033,166.01,148.459Z" fill="#407bff"/>
          </g>
        </g>
        <path id="Path_154" data-name="Path 154" d="M109.23,171.662l-3.5.922a2.94,2.94,0,0,1-3.433-1.641l-.6-.094a2.5,2.5,0,0,0-.849.015l-1.553.3.541-1.751a4.072,4.072,0,0,1,3.137-2.8l4.512-.848a2.862,2.862,0,0,1,2.7.948l.363.422a2.8,2.8,0,0,1-.264,4A2.936,2.936,0,0,1,109.23,171.662Z" fill="#ebb376"/>
        <path id="Path_155" data-name="Path 155" d="M143.977,345.055q.12-3.795.11-7.59c.7-4.423,1.437-8.574,2.193-12.5-3.952-15.593-6.512-28.747-8.091-39.153C136.384,301.337,135,328.292,143.977,345.055Z" opacity="0.1"/>
      </g>
    </g>
  </g>
</svg>
