<svg xmlns="http://www.w3.org/2000/svg" xmlns:xlink="http://www.w3.org/1999/xlink" width="165" height="280" viewBox="0 0 165 280">
  <defs>
    <clipPath id="clip-Illustration_Two">
      <rect width="165" height="280"/>
    </clipPath>
  </defs>
  <g id="Illustration_Two" data-name="Illustration Two" clip-path="url(#clip-Illustration_Two)">
    <g id="Shadow" transform="translate(-42.311 -154)">
      <ellipse id="_Path_" data-name="&lt;Path&gt;" cx="69.545" cy="11.323" rx="69.545" ry="11.323" transform="translate(56.111 404.915)" fill="#f5f5f5"/>
    </g>
    <g id="Cone_2" data-name="Cone 2" transform="translate(-291 -154)">
      <g id="Group_32" data-name="Group 32">
        <path id="Path_27" data-name="Path 27" d="M423.938,405.455,410.1,336.526h-5.3l-13.842,68.929-10.173,6.227v1.844h53v-1.844Z" fill="#407bff"/>
        <rect id="Rectangle_625" data-name="Rectangle 625" width="53" height="2.321" transform="translate(380.778 411.682)" fill="#fff" opacity="0.3" style="isolation: isolate"/>
        <path id="Path_28" data-name="Path 28" d="M410.1,336.526h-5.3l-14.009,68.726h32.987Z" fill="#fff" opacity="0.3" style="isolation: isolate"/>
        <path id="Path_29" data-name="Path 29" d="M419.333,382.947l-3.149-15.824H398.556l-3.226,15.824Z" fill="#fff" opacity="0.8" style="isolation: isolate"/>
      </g>
    </g>
    <g id="Character_2" data-name="Character 2" transform="translate(-194.005 -156.357)">
      <g id="Group_81" data-name="Group 81">
        <path id="Path_156" data-name="Path 156" d="M255.916,210.221c6.5,4.062,14.009,9.049,20.862,11.367a2.685,2.685,0,0,0-1.4.788,2.459,2.459,0,0,0-.514.725c.2-2.484-1.191-8.028-2.211-11.457-1.314-4.446-2.832-8.933-4.408-13.295a2.477,2.477,0,0,1,4.534-1.965,139.7,139.7,0,0,1,8.442,20.11c.953,3.506,2.553,8.256-.336,11.444-2.86,2.751-7.22,1.229-10.2.268a136.841,136.841,0,0,1-19.958-9.461c-5.842-3.546-.656-12.093,5.192-8.524Z" fill="#d9877c"/>
        <path id="Path_157" data-name="Path 157" d="M251.5,208.046c4.017.018,21.251,11,21.251,11l-2.681-13.527,7.532-1.993s10.533,21.749,4.085,27.257c-4.468,3.818-25.153-6.589-25.153-6.589Z" fill="#407bff"/>
        <path id="Path_158" data-name="Path 158" d="M251.5,208.05l2.531,8.13,2.5,8.01s3.469,1.74,7.869,3.54c6.35,2.6,14.651,5.31,17.29,3.05,6.451-5.51-4.089-27.26-4.089-27.26l-7.53,2,2.679,13.52S255.523,208.06,251.5,208.05Z" fill="#fff" opacity="0.4"/>
        <path id="Path_159" data-name="Path 159" d="M254.034,216.18l2.5,8.01s3.469,1.74,7.869,3.54A19.6,19.6,0,0,0,254.034,216.18Z" opacity="0.1"/>
        <g id="Group_66" data-name="Group 66">
          <g id="Group_65" data-name="Group 65">
            <path id="Path_160" data-name="Path 160" d="M241.866,405.186a9.845,9.845,0,0,1-1.777-2.986l0-.008h0a.21.21,0,0,1,0-.149h0a.194.194,0,0,1,.022-.04h0a.21.21,0,0,1,.073-.066c.079-.042,1.822-.96,2.921-.565a1.223,1.223,0,0,1,.742.715.726.726,0,0,1-.064.847c-.3.293-1,.221-1.713.04a3.268,3.268,0,0,1,1.187,1.347.854.854,0,0,1-.048.685.767.767,0,0,1-.715.5A1.084,1.084,0,0,1,241.866,405.186Zm-1.149-2.6c.532,1.157,1.316,2.465,1.8,2.49.042,0,.17.009.322-.276a.439.439,0,0,0,.019-.359C242.656,403.815,241.51,403.045,240.717,402.591Zm2.523-.666a.831.831,0,0,0-.277-.161,3.468,3.468,0,0,0-2.161.344c1.173.464,2.431.773,2.687.523.08-.078.015-.277-.03-.388A.852.852,0,0,0,243.24,401.925Z" fill="#407bff"/>
          </g>
          <path id="Path_161" data-name="Path 161" d="M234.138,395.567c.448-.468,5.987,5.272,5.987,5.272s.261,6.982,3.022,11.015-1.128,4.351-5.057.767l-9.718-8.865C225.581,401.21,229.495,400.423,234.138,395.567Z" fill="#407bff"/>
          <path id="Path_162" data-name="Path 162" d="M234.138,395.567c.448-.468,5.987,5.272,5.987,5.272s.261,6.982,3.022,11.015-1.128,4.351-5.057.767l-9.718-8.865C225.581,401.21,229.495,400.423,234.138,395.567Z" fill="#fff" opacity="0.3"/>
          <path id="Path_163" data-name="Path 163" d="M234.138,395.567c.448-.468,5.987,5.272,5.987,5.272s.261,6.982,3.022,11.015-1.128,4.351-5.057.767l-9.718-8.865C225.581,401.21,229.495,400.423,234.138,395.567Z" opacity="0.2"/>
        </g>
        <g id="Group_68" data-name="Group 68">
          <g id="Group_67" data-name="Group 67">
            <path id="Path_164" data-name="Path 164" d="M239.189,410.53a9.856,9.856,0,0,1-3.313-1.048l-.008,0h0a.188.188,0,0,1-.05-.038.2.2,0,0,1-.047-.075h0a.246.246,0,0,1-.011-.045h0a.2.2,0,0,1,.012-.1c.03-.084.721-1.929,1.805-2.365a1.223,1.223,0,0,1,1.029.041c.361.176.534.4.516.675-.029.418-.6.832-1.253,1.169a3.267,3.267,0,0,1,1.782.217.853.853,0,0,1,.42.543.765.765,0,0,1-.2.847A1.071,1.071,0,0,1,239.189,410.53Zm-2.584-1.174c1.167.511,2.622.966,3,.663.033-.026.133-.107.057-.42a.444.444,0,0,0-.224-.281A5.2,5.2,0,0,0,236.6,409.356Zm1.442-2.175a.828.828,0,0,0-.314.064,3.462,3.462,0,0,0-1.386,1.694c1.185-.434,2.33-1.039,2.355-1.4.008-.111-.173-.216-.281-.269A.848.848,0,0,0,238.047,407.181Z" fill="#407bff"/>
          </g>
          <path id="Path_165" data-name="Path 165" d="M227.02,408.486c.023-.648,7.978-.044,7.978-.044s4.838,5.04,9.582,6.216,2.051,4-3.266,3.936l-13.154-.158C224.382,418.391,226.782,415.2,227.02,408.486Z" fill="#407bff"/>
          <path id="Path_166" data-name="Path 166" d="M227.02,408.486c.023-.648,7.978-.044,7.978-.044s4.838,5.04,9.582,6.216,2.051,4-3.266,3.936l-13.154-.158C224.382,418.391,226.782,415.2,227.02,408.486Z" fill="#fff" opacity="0.3"/>
        </g>
        <path id="Path_167" data-name="Path 167" d="M225.253,174.63s2.17-3.749,8.389-4.39,14.461,2.683,15.724,12.172,3.954,14.7,3.954,14.7c-15.412,10.287-33.071,5.112-33.071,5.112C221.669,186.144,214.457,175.8,225.253,174.63Z" fill="#263238"/>
        <g id="Group_69" data-name="Group 69">
          <path id="Path_168" data-name="Path 168" d="M265.932,343.609c-2.9,5.784-5.829,12.015-8.627,18.243-3.684,8.22-7.149,16.451-10.093,23.816-2.107,5.256-4.849,11.89-6.293,15.9A14.5,14.5,0,0,1,232.511,398c1.076-7.223,3.963-25.967,9.411-42.464,2.866-8.678,6.439-17.242,10.839-24.215-20.581-53.074-16.6-73.343-16.6-73.343L258,256.306s3.941,19.888,7.24,40.309v.009c1.72,10.706,3.262,21.555,3.972,29.762l0,.082A32.043,32.043,0,0,1,265.932,343.609Z" fill="#263238"/>
          <path id="Path_169" data-name="Path 169" d="M247,315.524c-3.058-9.035-5.305-16.872-6.928-23.6,1.229-5.344,3.069-9.944,5.681-12.758C245.751,279.162,250.1,293.8,247,315.524Z" opacity="0.2"/>
          <path id="Path_170" data-name="Path 170" d="M247.212,385.668c-2.107,5.256-4.849,11.89-6.293,15.9A14.5,14.5,0,0,1,232.511,398c1.076-7.223,3.963-25.967,9.411-42.464C243.8,364.374,245.949,375.55,247.212,385.668Z" opacity="0.2"/>
        </g>
        <g id="Group_70" data-name="Group 70">
          <path id="Path_171" data-name="Path 171" d="M249.2,254.175s-6.367,49.272-10.017,72.983c-3.832,24.9-4.319,64.862-3.361,81.146-1.4.81-6.479,1.791-9.227.932,0,0-12.986-50.365-4.361-79.618-7.854-57.62,3.513-71.73,3.513-71.73Z" fill="#263238"/>
        </g>
        <g id="Group_71" data-name="Group 71">
          <path id="Path_172" data-name="Path 172" d="M225.947,254.175l31.838-2.147s.957,9.561.735,9.424-34.079,1.194-34.079,1.194Z" fill="#263238"/>
          <path id="Path_173" data-name="Path 173" d="M226.236,254.7l31.5-1.74v2.985l-31.793,1.692Z"/>
          <path id="Path_174" data-name="Path 174" d="M243.968,257.223a.909.909,0,0,1-.908-.843l-.137-1.75a.917.917,0,0,1,.84-.983l3.45-.268a.913.913,0,0,1,.985.91v1.844a.914.914,0,0,1-.864.912l-3.315.176Zm3.317-3.23h-.024l-3.45.269a.3.3,0,0,0-.273.319l.137,1.751a.3.3,0,0,0,.311.272l3.315-.175a.3.3,0,0,0,.281-.3v-1.844a.3.3,0,0,0-.3-.3Z" fill="#fff"/>
          <path id="Path_175" data-name="Path 175" d="M225.947,254.175c-.664-7.475-3.34-21.174-7.948-35.561-1.5-4.678,1.043-9.96,1.043-9.96s6.271-.161,6.9-.231c.694-.081,1.408-.151,2.123-.212a102.524,102.524,0,0,1,14.588-.493c1.207.071,2.445.171,3.662.272.393.04,4.8.08,5.184.121,0,0,6.1,6.982,6.477,12.636a99.453,99.453,0,0,1,.5,13.1c-.031,5.131-.659,18.588-.659,18.588Z" fill="#407bff"/>
          <path id="Path_176" data-name="Path 176" d="M217.713,217.42c.011.04.021.09.031.13a7.443,7.443,0,0,0,.25,1.01c1.37,4.26,2.57,8.47,3.59,12.47.46,1.8.89,3.56,1.28,5.26a141.543,141.543,0,0,1,3.079,17.83l31.881-1.74s.21-4.51.4-9.31c.13-3.49.25-7.12.26-9.28a100.173,100.173,0,0,0-.5-13.1,6.974,6.974,0,0,0-.09-.74c-.81-5.5-6.391-11.9-6.391-11.9-.379-.04-4.79-.08-5.179-.12-1.22-.1-2.46-.2-3.671-.27a102.815,102.815,0,0,0-14.579.49c-.72.07-1.43.14-2.131.22-.629.07-6.9.23-6.9.23S216.894,213.06,217.713,217.42Z" fill="#fff" opacity="0.4"/>
          <path id="Path_177" data-name="Path 177" d="M217.744,217.55a7.443,7.443,0,0,0,.25,1.01c1.37,4.26,2.57,8.47,3.59,12.47,1.89-5.14-1.331-14.52-1.331-14.52A9.7,9.7,0,0,0,217.744,217.55Z" opacity="0.1"/>
        </g>
        <g id="Group_72" data-name="Group 72">
          <path id="Path_178" data-name="Path 178" d="M239.744,213.383l-13.8-4.957c4.16-.81,4.68-4.86,4.39-8.02-.01-.11-.02-.22-.04-.33a40.443,40.443,0,0,0-.96-5.43c-.26-1.06-.54-2.04-.8-2.9l3.93,2.95,5.86,4.38a4.714,4.714,0,0,0-.06.77,16.715,16.715,0,0,0,.34,2.83,6.682,6.682,0,0,0,1.14,2.84,6.149,6.149,0,0,0,4.91,2.34Z" fill="#d9877c"/>
          <path id="Path_179" data-name="Path 179" d="M239.744,205.516c-4.39-.16-7.46-2.77-9.45-5.44a40.443,40.443,0,0,0-.96-5.43c-.26-1.06-.54-2.04-.8-2.9l3.93,2.95,5.86,4.38a4.714,4.714,0,0,0-.06.77,16.715,16.715,0,0,0,.34,2.83A6.682,6.682,0,0,0,239.744,205.516Z" opacity="0.2"/>
          <path id="Path_180" data-name="Path 180" d="M238.024,208.6l-9.49-3.084-3.441,2.954,10.206,5.7,1.977-1.419,2.468.632,1.753-1.191,3.228,1.191-.071-5.527-4.091-2.34Z" fill="#407bff"/>
          <path id="Path_181" data-name="Path 181" d="M238.024,208.6l-9.49-3.084-3.441,2.954,10.206,5.7,1.977-1.419,2.468.632,1.753-1.191,3.228,1.191-.071-5.527-4.091-2.34Z" fill="#fff" opacity="0.4"/>
          <path id="Path_182" data-name="Path 182" d="M244.654,207.856l-.367,4.761-4.543-3.447-.606,2.809-2.255-2.553-1.583,3.617-10.206-4.573,10.206,5.7,1.8-3.34,2.255,1.66.848-1.958,4.526,2.852Z" opacity="0.1"/>
        </g>
        <g id="Group_73" data-name="Group 73">
          <path id="Path_183" data-name="Path 183" d="M225.275,184.3c1.371,7.293,1.8,10.4,5.958,13.9,6.259,5.262,14.859,2.479,15.681-4.956.74-6.692-1.625-17.494-9.14-19.9A9.5,9.5,0,0,0,225.275,184.3Z" fill="#d9877c"/>
          <path id="Path_184" data-name="Path 184" d="M231.546,179.034c-4.024,5.193,4.241,11.165-4.024,10.819s-4.908-12.017,0-14.671S231.546,179.034,231.546,179.034Z" fill="#263238"/>
          <path id="Path_185" data-name="Path 185" d="M235.827,185.518c.089.617.481,1.093.876,1.064s.644-.553.555-1.17-.48-1.093-.875-1.064S235.739,184.9,235.827,185.518Z" fill="#263238"/>
          <path id="Path_186" data-name="Path 186" d="M243.276,185.078c.089.617.481,1.094.876,1.065s.644-.553.555-1.17-.481-1.094-.876-1.065S243.188,184.461,243.276,185.078Z" fill="#263238"/>
          <path id="Path_187" data-name="Path 187" d="M243.662,183.956l1.39-.535S244.473,184.634,243.662,183.956Z" fill="#263238"/>
          <path id="Path_188" data-name="Path 188" d="M242.349,186.243a18.307,18.307,0,0,0,2.72,3.78,2.479,2.479,0,0,1-2.1.571Z" fill="#de5753"/>
          <path id="Path_189" data-name="Path 189" d="M239.825,193.131a5.814,5.814,0,0,0,1.027.014.166.166,0,0,0,.151-.2.2.2,0,0,0-.2-.167,5.172,5.172,0,0,1-4.177-1.623.174.174,0,1,0-.27.219A5.445,5.445,0,0,0,239.825,193.131Z" fill="#263238"/>
          <path id="Path_190" data-name="Path 190" d="M234.748,182.2a.33.33,0,0,0,.254-.109,2.669,2.669,0,0,1,2.36-.906.332.332,0,0,0,.4-.285.394.394,0,0,0-.311-.427,3.324,3.324,0,0,0-3,1.11.371.371,0,0,0,.042.514A.38.38,0,0,0,234.748,182.2Z" fill="#263238"/>
          <path id="Path_191" data-name="Path 191" d="M245.951,181.534a.335.335,0,0,0,.249-.08.359.359,0,0,0,.013-.509,3.811,3.811,0,0,0-3.086-1.375.331.331,0,0,0-.289.4.393.393,0,0,0,.419.32,3.044,3.044,0,0,1,2.433,1.115A.391.391,0,0,0,245.951,181.534Z" fill="#263238"/>
          <path id="Path_192" data-name="Path 192" d="M236.213,184.4l1.39-.535S237.025,185.073,236.213,184.4Z" fill="#263238"/>
          <path id="Path_193" data-name="Path 193" d="M234.369,174.991s-1.432,8.6-7.142,10.035-1.075-8.839-1.075-8.839,1.2-4.657,8.913-4.657,16.616,7.836,14.143,19.1a12.43,12.43,0,0,0-1.286-6.722C246.213,180.945,244.453,183.5,234.369,174.991Z" fill="#263238"/>
          <path id="Path_194" data-name="Path 194" d="M229.176,172.818c-8.155,3.261-10.109,9.047-9.417,14.981s7,11.769,8.185,11.992l1.78-2.7s-3.754-4.625-2.668-7.282,2.174-2.92,2.174-2.92Z" fill="#263238"/>
          <path id="Path_195" data-name="Path 195" d="M224.567,191.335a5.1,5.1,0,0,0,3.1,2.716c1.7.451,2.434-1.495,1.868-3.438-.508-1.749-2-4.091-3.662-3.669C224.24,187.361,223.713,189.625,224.567,191.335Z" fill="#d9877c"/>
        </g>
        <g id="Group_74" data-name="Group 74">
          <path id="Path_196" data-name="Path 196" d="M225.671,179.392s3.022,18.8,13.091,21.3l2.061-.436a11.319,11.319,0,0,1-8.723-5.964c-3.252-5.74-4.916-15.11-4.916-15.11Z"/>
          <path id="Path_197" data-name="Path 197" d="M237.77,200.381a6.133,6.133,0,0,1,3.15-1.373,5,5,0,0,1,2.547.145,4.054,4.054,0,0,1-2.67,1.589A3.413,3.413,0,0,1,237.77,200.381Z"/>
        </g>
        <g id="Group_75" data-name="Group 75">
          <path id="Path_198" data-name="Path 198" d="M250.727,177.308c-6.182,6-20.414.513-25.937,3.8-5.488,3.259-5.037,6.652-5.031,6.695-3.725.815-1.223-4.531-1.223-4.531-2.792-10.943,4.883-16.7,15.882-17.232,10.3-.5,12.189,9.1,12.189,9.1Z" fill="#407bff"/>
          <path id="Path_199" data-name="Path 199" d="M246.607,175.134c-2.657,3.6-16.9,1.789-22.412,3.132s-5.659,5-5.659,5c-2.792-10.943,4.883-16.7,15.882-17.232C244.721,165.538,246.607,175.134,246.607,175.134Z" opacity="0.2" style="isolation: isolate"/>
          <path id="Path_200" data-name="Path 200" d="M226.651,168.068c4.476-1.188,8.983,2.466,10.63,5.023s5.686,1.889,6.03-.836a4.009,4.009,0,0,0-.261-1.852,7.545,7.545,0,0,0-6.61-4.619c-5.1-.439-13.917-.21-16.191,6.148C220.249,171.932,222.046,169.29,226.651,168.068Z" fill="#407bff"/>
        </g>
        <g id="Group_76" data-name="Group 76">
          <path id="Path_201" data-name="Path 201" d="M224.443,254.14l-3.429,11.75,23.71,2.22.84-12.88,1.24,12.88,14.55-1.88-2.8-15.1s.08-1.32.21-3.39c.1-1.86.23-4.32.36-7,.3-6.68.549-14.7.18-17.92-.68-5.95-8.58-15.2-8.58-15.2l-.59.04-3.4.24-.41.03a17.666,17.666,0,0,1-2.23,16.26s-12-4.69-19-15.72l-.99.02-3.6.08-1.459.03s4.69,21.46,2.479,27.97l1.081,6.48,1.149,6.92Z" fill="#407bff"/>
          <path id="Path_202" data-name="Path 202" d="M233.084,241.24c-4.44.57-8.05,1.27-10.48,1.81l1.149,6.92a116.086,116.086,0,0,1,35.011-2.23c.1-1.86.23-4.32.36-7-1.38-.14-2.74-.24-4.08-.32.33-6.46.7-19.82-1.56-25.86a42.365,42.365,0,0,0-3.35-6.9l-3.4.24a39.923,39.923,0,0,1,3.939,7.71c2.051,5.49,1.691,18.42,1.371,24.68a119.284,119.284,0,0,0-15.97.61c-3.45-16.73-8.381-26.84-11.97-32.41l-3.6.08C223.864,213.36,229.354,223.38,233.084,241.24Z" fill="#fff" opacity="0.6" style="isolation: isolate"/>
          <path id="Path_203" data-name="Path 203" d="M244.093,224.191s.317,3.681.874,7.937.592,23.1.592,23.1a107.535,107.535,0,0,0,.366-15.517C245.527,234.874,246.324,230.66,244.093,224.191Z" opacity="0.2"/>
        </g>
        <g id="Group_79" data-name="Group 79">
          <path id="Path_204" data-name="Path 204" d="M221.948,219.738c-4.195,4.87-8.85,10.4-11.489,16.22a8.973,8.973,0,0,0-.647,2.15c-.026.205-.012.279-.088.137,1.908,2.026,7.741,4.367,11.444,5.582,4.42,1.478,9.039,2.759,13.567,3.86a2.476,2.476,0,0,1-.871,4.863c-7.709-1.107-27.833-3.7-31.373-11.168-3.434-7.914,7.245-21.9,11.838-28.09,4.407-5.271,12.092,1.213,7.619,6.446Z" fill="#d9877c"/>
          <path id="Path_205" data-name="Path 205" d="M219.044,208.6c-7.821,1.634-18.034,23.251-19.225,31.932s25.272,12.429,25.272,12.429l3.443-8.174s-13.2-4.538-16.432-6.922c0,0,3.547-7.8,8.4-12.336a42.572,42.572,0,0,0,2.976-9.673C224.329,210.745,219.044,208.6,219.044,208.6Z" fill="#407bff"/>
          <g id="Group_78" data-name="Group 78">
            <g id="Group_77" data-name="Group 77">
              <path id="Path_206" data-name="Path 206" d="M232.988,263.363l20.667,1.822a1.642,1.642,0,0,0,1.655-1.1l8.269-27.438a1,1,0,0,0-.921-1.33l-20.667-1.822a1.641,1.641,0,0,0-1.654,1.1l-8.27,27.438A1,1,0,0,0,232.988,263.363Z" fill="#263238"/>
              <path id="Path_207" data-name="Path 207" d="M232.988,263.363l20.667,1.822a1.642,1.642,0,0,0,1.655-1.1l8.269-27.438a1,1,0,0,0-.921-1.33l-20.667-1.822a1.641,1.641,0,0,0-1.654,1.1l-8.27,27.438A1,1,0,0,0,232.988,263.363Z" fill="#fff" opacity="0.2"/>
              <path id="Path_208" data-name="Path 208" d="M246.114,236.594l10.813.954a1.211,1.211,0,0,0,1.219-.813l.612-2.03-12.711-1.121-.612,2.03A.737.737,0,0,0,246.114,236.594Z" fill="#263238"/>
              <path id="Path_209" data-name="Path 209" d="M252.26,235.2c-.036,0-.072,0-.108-.005a1,1,0,0,1-.748-.419.965.965,0,0,1-.112-.831,1.367,1.367,0,0,1,1.387-.926.99.99,0,0,1,.747.419.96.96,0,0,1,.113.83A1.362,1.362,0,0,1,252.26,235.2Zm.311-1.574a.753.753,0,0,0-.693.495h0a.36.36,0,0,0,.033.311.386.386,0,0,0,.295.153.767.767,0,0,0,.747-.494.363.363,0,0,0-.033-.311.386.386,0,0,0-.295-.153A.488.488,0,0,0,252.571,233.621Z" fill="#263238"/>
            </g>
            <path id="Path_210" data-name="Path 210" d="M236.39,243.565l-6,3.37-.336,4.582c1.44,3.315,7.746.255,7.746.255l1.569.536a1.893,1.893,0,0,0,2.5-1.9l-.249-4.2a1.894,1.894,0,0,0-1.1-1.609l-2.416-1.106A1.893,1.893,0,0,0,236.39,243.565Z" fill="#d9877c"/>
          </g>
          <path id="Path_211" data-name="Path 211" d="M219.044,208.6c-7.821,1.634-18.034,23.251-19.225,31.932s25.272,12.429,25.272,12.429l3.443-8.174s-13.2-4.538-16.432-6.922c0,0,3.547-7.8,8.4-12.336a42.572,42.572,0,0,0,2.976-9.673C224.329,210.745,219.044,208.6,219.044,208.6Z" fill="#fff" opacity="0.4"/>
          <path id="Path_212" data-name="Path 212" d="M220.5,208.57l3.6-.08.99-.02a38.877,38.877,0,0,0,8.47,9.329v7.627h-11.8c-.8-8.036-2.722-16.826-2.722-16.826Z" fill="#407bff"/>
          <path id="Path_213" data-name="Path 213" d="M228.738,225.426A69.628,69.628,0,0,0,220.5,208.57l3.6-.08a76.559,76.559,0,0,1,7.833,16.936Z" fill="#fff" opacity="0.6" style="isolation: isolate"/>
        </g>
        <g id="Group_80" data-name="Group 80">
          <path id="Path_214" data-name="Path 214" d="M267.266,186.243l.159-2.383a1.175,1.175,0,0,0-1.563-.068l-.671,2.352Z" fill="#263238"/>
          <path id="Path_215" data-name="Path 215" d="M270.074,188.118l2.362-23.1a.535.535,0,0,0-.7,0l-3.064,22.347Z" fill="#263238"/>
          <path id="Path_216" data-name="Path 216" d="M270.675,187.873l-2.26,16.872-3.852.29-3.848-2.171.376-4.816s2.821-5.266,1.7-7.091l.733-4.321,2.778-1.61Z" fill="#263238"/>
          <path id="Path_217" data-name="Path 217" d="M260.713,202.86l3.854,2.178,3.85-.3,2.256-16.87-4.369-2.84-2.781,1.61-.729,4.32c1.12,1.82-1.7,7.09-1.7,7.09Z" fill="#fff" opacity="0.4"/>
          <path id="Path_218" data-name="Path 218" d="M268.415,204.745l-4.34-2.523-3.359.643,3.848,2.17Z" opacity="0.2"/>
          <path id="Path_219" data-name="Path 219" d="M260.713,202.86l3.361-.64,2.23-17.19-2.781,1.61-.729,4.32c1.12,1.82-1.7,7.09-1.7,7.09Z" fill="#fff" opacity="0.4"/>
        </g>
        <path id="Path_220" data-name="Path 220" d="M268.986,190.651l3.79,5.741-1.8,4.228c-2.8,2.289-7.005-3.318-7.005-3.318l-1.639-.242a1.893,1.893,0,0,1-1.353-2.837l2.142-3.616a1.9,1.9,0,0,1,1.716-.926l2.655.123A1.889,1.889,0,0,1,268.986,190.651Z" fill="#d9877c"/>
      </g>
    </g>
  </g>
</svg>
