<svg xmlns="http://www.w3.org/2000/svg" xmlns:xlink="http://www.w3.org/1999/xlink" width="157" height="153" viewBox="0 0 157 153">
  <defs>
    <clipPath id="clip-path">
      <path id="Path_210" data-name="Path 210" d="M319.555,239.552a69.12,69.12,0,1,1-69.12-69.119A69.122,69.122,0,0,1,319.555,239.552Z" fill="none"/>
    </clipPath>
    <clipPath id="clip-male">
      <rect width="157" height="153"/>
    </clipPath>
  </defs>
  <g id="male" clip-path="url(#clip-male)">
    <g id="Supri" transform="translate(-173 -161.552)">
      <path id="Path_161" data-name="Path 161" d="M319.555,239.552a69.12,69.12,0,1,1-69.12-69.119A69.122,69.122,0,0,1,319.555,239.552Z" fill="#2563eb"/>
      <g id="Group_26" data-name="Group 26">
        <g id="Group_25" data-name="Group 25" clip-path="url(#clip-path)">
          <g id="Group_24" data-name="Group 24">
            <g id="Group_23" data-name="Group 23">
              <path id="Path_162" data-name="Path 162" d="M251.6,275.7a.383.383,0,0,1-.182.143,3.474,3.474,0,0,1-2.939-.092,7.208,7.208,0,0,0-2.36.692,27.472,27.472,0,0,0-.14,3.259,4.171,4.171,0,0,0,1.563,2.673l.008.006a8.935,8.935,0,0,1,3.184-.332,2.516,2.516,0,0,1,1.2.275,3.167,3.167,0,0,0,1.494-1.605,11.222,11.222,0,0,0,.412-2.474c-.712-.807-1.428-1.6-2.167-2.39A.321.321,0,0,1,251.6,275.7Z" fill="#26404c"/>
              <path id="Path_163" data-name="Path 163" d="M250.886,274.969a25.668,25.668,0,0,0,3.9-4.277c1.115-1.687,1.84-3.619,2.911-5.32-.223-.017-.452-.03-.677-.051l-1.17-.124-.1-.915a16.257,16.257,0,0,1,.346-4.591,9.15,9.15,0,0,1-1.906.1c-.221-.015-.363-.348-.125-.461a9.517,9.517,0,0,1,1.812-.6c2.132-1.014,4.647-1.2,6.873-2.038a15.2,15.2,0,0,0,6.907-4.785c3.227-4.211,3.351-10.037,4.715-15.014a2.554,2.554,0,0,1-.174-.326.326.326,0,0,1,.442-.441c.027.013.052.017.081.031a.283.283,0,0,1,.349.131c3.737,1.325,5.315-4.789,5.633-7.446.167-1.384.457-4.613-.845-5.6a3.91,3.91,0,0,0-3.616.256,8.52,8.52,0,0,0-1.621,2.922c-.114.275-.63.28-.589-.078a6.486,6.486,0,0,1,.237-1.208c-1.4-3.576-1.614-8.079-1.906-11.873-.278-3.615-.183-7.55-.183-11.188h0c0-3.228-6.571-3.334-8.6-3.531a52.341,52.341,0,0,0-7.258-.2,53.077,53.077,0,0,0-8.466,1.023c-2.009.409-4.108,1.29-6.159,1.334-.036.1-.069.193-.1.291a.491.491,0,0,1-.945-.261,18.584,18.584,0,0,1,2.015-5.307c.178-.352.365-.79.578-1.232a12.01,12.01,0,0,0-1.94,1.6,19.5,19.5,0,0,0-2.646,3.861c-.357.358-.7.723-1.049,1.091-.024-.022-.054-.031-.073-.066a11.961,11.961,0,0,1-1.084-4.05c-.09.589-.18,1.178-.255,1.769-.066.525-.083,1.063-.15,1.588.017.273.024.545.017.823a3.206,3.206,0,0,1-.1,1,.327.327,0,0,1-.074.153c-.015.023-.02.048-.034.07a.416.416,0,0,1-.368.165c-1.185.5-2.592-.282-3.654-.854a14.509,14.509,0,0,1-1.925-1.189c-.354.372-.725.727-1.061,1.119a5.868,5.868,0,0,0-.445.631c-1.552,3.714-1.707,8.012-2.006,11.984-.3,4.071-.011,8.167-.309,12.221,0,.032-.025.052-.038.079a.189.189,0,0,1-.319.155.2.2,0,0,1-.153-.165c-.011-.055-.018-.111-.028-.167-.712-1.512-1.4-3.807-2.971-4.5-3.537-1.549-4.045,3.377-4.1,5.321-.1,4.028,1.5,11.308,7.118,8.507a.325.325,0,0,1,.392.507,3.8,3.8,0,0,1-.316.328c.605,3.007.726,6.068,1.637,9.03a23.55,23.55,0,0,0,4.426,8.3,17.16,17.16,0,0,0,7.421,5.132c2.961,1.035,5.711.709,8.731.931a.379.379,0,0,1,.1.741,9.2,9.2,0,0,1-2.153.547,14.084,14.084,0,0,1,.124,2.331c0,.281,0,.566,0,.851l-.043,1.034-1.046.179c-.03,0-.058.01-.089.016C245.877,269.029,246.3,274.286,250.886,274.969Zm24.92-46.834c.267-.858.556-2.166,1.335-2.742,1.462-1.083,2.734,1.22,2.053,2.433a.228.228,0,0,1-.387,0c-.373-.491-.428-1.556-1.306-.917-.424.308-.676,1.467-.847,1.926-.418,1.131-.638,2.3-.98,3.454a.305.305,0,0,1-.6-.081A13.305,13.305,0,0,1,275.806,228.135Zm-12.747-3.481a4.639,4.639,0,0,1-1,2.345,1.042,1.042,0,0,1-1.529.189c-.555-.545-.4-1.753-.353-2.44a6.725,6.725,0,0,1,.6-2.642,1.3,1.3,0,0,1,2.369-.227A5.745,5.745,0,0,1,263.059,224.654Zm-4.244-9.492c1.241-1.305,3.319-3.146,5.264-3.077a3.1,3.1,0,0,1,2.756,3.262c-.028.229-.283.47-.522.3-1.188-.864-1.373-2.423-3.194-2.065a11.382,11.382,0,0,0-4.035,1.929C258.869,215.657,258.65,215.337,258.815,215.162Zm-35.18,15.414a14.578,14.578,0,0,0-1.272-3.41c-.258-.458-.6-1.415-1.229-1.054a2.3,2.3,0,0,0-.809,1.4.339.339,0,0,1-.647,0c-.565-1.36.945-3.629,2.5-2.763.791.439,1.065,1.731,1.288,2.524a11.783,11.783,0,0,1,.488,3.256A.165.165,0,0,1,223.635,230.576Zm15.385-5.922a4.638,4.638,0,0,1-1,2.345,1.041,1.041,0,0,1-1.528.189c-.556-.545-.4-1.753-.354-2.44a6.76,6.76,0,0,1,.6-2.642,1.3,1.3,0,0,1,2.369-.227A5.709,5.709,0,0,1,239.02,224.654Zm.337-9.864c-1.162-1.335-2-2.989-4.026-1.948a12.589,12.589,0,0,0-2.953,1.986.319.319,0,0,1-.528-.139c-.314-1.6,2.211-3,3.479-3.426,2.479-.831,3.482,1.4,4.314,3.307C239.718,214.745,239.5,214.958,239.357,214.79Zm6.084,21.957a45.274,45.274,0,0,1,1.754-7.628.181.181,0,0,1,.349.1,64.554,64.554,0,0,0-1.341,7.635c-.135,1.379-.522,2.635.682,3.742a3.25,3.25,0,0,0,4.44-.24.3.3,0,0,1,.466.359,2.992,2.992,0,0,1-3.09,1.648c-.889-.109-2.9-.724-3.414-1.43C244.573,239.944,245.278,237.852,245.441,236.747Zm-.081,14.3a3.557,3.557,0,0,1-1.689-2.311l-.238-.758.644-.089c2.073-.291,4.16-.513,6.228-.786,2.3-.3,4.608-.675,6.921-.965l.833-.106-.187.83c-.812,2.525-3.333,3.579-6.528,4.106C249.623,251.25,247.022,251.75,245.36,251.047Z" fill="#f7ab81"/>
              <path id="Path_164" data-name="Path 164" d="M229.73,206.237c.493,0,.726.306,1.135.481,1.685.718,2.443-.252,3.633-1a9.415,9.415,0,0,1,2.88-1.338,23.863,23.863,0,0,1,5.175-.151q3.426-.022,6.854-.078c3.762-.065,7.508-.158,11.264-.357,1.874-.1,4.981-.508,6.575.829,1,.84.954,2.1,1.2,3.294.4,1.971.868,3.943,1.392,5.885.546,2.026.972,4.093,1.564,6.105a21.329,21.329,0,0,0,2.789,5.562c.029-.116.049-.228.085-.345-1.4-3.576-1.614-8.079-1.906-11.873-.278-3.615-.183-7.55-.183-11.188h0c0-3.228-6.571-3.334-8.6-3.531a52.341,52.341,0,0,0-7.258-.2,53.077,53.077,0,0,0-8.466,1.023c-2.009.409-4.108,1.29-6.159,1.334-.036.1-.069.193-.1.291a.491.491,0,0,1-.945-.261,18.584,18.584,0,0,1,2.015-5.307c.178-.352.365-.79.578-1.232a12.01,12.01,0,0,0-1.94,1.6,19.5,19.5,0,0,0-2.646,3.861c-.357.358-.7.723-1.049,1.091-.024-.022-.054-.031-.073-.066a11.961,11.961,0,0,1-1.084-4.05c-.09.589-.18,1.178-.255,1.769-.066.525-.083,1.063-.15,1.588.017.273.024.545.017.823a3.206,3.206,0,0,1-.1,1,.327.327,0,0,1-.074.153c-.015.023-.02.048-.034.07a.416.416,0,0,1-.368.165c-1.185.5-2.592-.282-3.654-.854a14.509,14.509,0,0,1-1.925-1.189c-.354.372-.725.727-1.061,1.119a5.868,5.868,0,0,0-.445.631,23.334,23.334,0,0,0-1.488,6.029A3.649,3.649,0,0,1,229.73,206.237Z" fill="#d87760"/>
              <path id="Path_165" data-name="Path 165" d="M255.849,265.2l-.01-.088a27.242,27.242,0,0,1-10.862.83c.964,3.692,1.6,8.389,5.909,9.03a25.668,25.668,0,0,0,3.9-4.277c1.115-1.687,1.84-3.619,2.911-5.32-.223-.017-.452-.03-.677-.051Z" fill="#f49c76"/>
              <path id="Path_166" data-name="Path 166" d="M246.844,260.656a9.6,9.6,0,0,1-1,.191,14.084,14.084,0,0,1,.124,2.331c0,.281,0,.566,0,.851l-.033.8a25.56,25.56,0,0,0,9.806-.938,16.341,16.341,0,0,1,.306-3.917A44.593,44.593,0,0,1,246.844,260.656Z" fill="#d87760"/>
              <path id="Path_167" data-name="Path 167" d="M247.093,243.616c1.376.706,2.612-.212,3.121-1.444a2.939,2.939,0,0,1-1.513.188,8.6,8.6,0,0,1-2.918-1.01A3,3,0,0,0,247.093,243.616Z" fill="#d87760"/>
              <path id="Path_168" data-name="Path 168" d="M222.363,227.166c-.258-.458-.6-1.415-1.229-1.054a1.905,1.905,0,0,0-.71,1.072,5.508,5.508,0,0,1,1.808,2.824c.171.472-.311.785-.714.745.02.013.029.02.052.034l.235.074a.828.828,0,0,0,.754-.293,2.575,2.575,0,0,0,.547-1.04.6.6,0,0,1,.145-.25A11.276,11.276,0,0,0,222.363,227.166Z" fill="#d87760"/>
              <path id="Path_169" data-name="Path 169" d="M278.34,226.941c-.169-.246-.4-.35-.839-.032s-.676,1.467-.847,1.926c-.324.878-.532,1.779-.766,2.677a.617.617,0,0,1,.2.151q.411.558.82.08a.5.5,0,0,0,.263-.509,2.242,2.242,0,0,1-.253-.473,1.072,1.072,0,0,1,.1-.944c.466-.713,1.345-1.4,1.181-2.368A.609.609,0,0,1,278.34,226.941Z" fill="#d87760"/>
              <path id="Path_170" data-name="Path 170" d="M256.892,247.231c.031-.071.045-.146.074-.217-1.913.312-3.839.556-5.752.811-2.22.3-4.465.614-6.711.83a3.149,3.149,0,0,0,2.443,1.614,15.606,15.606,0,0,0,4.2-.259C253.192,249.718,255.945,249.326,256.892,247.231Z" fill="#fff"/>
              <path id="Path_171" data-name="Path 171" d="M252.038,275.325c1.527.24,2.584,1.986,3.517,3.059a30.774,30.774,0,0,1,3.164,3.565,44.709,44.709,0,0,0,3.145-7.34,28.292,28.292,0,0,0,1.155-4.481c.244-1.533.1-3.045.275-4.563-1.571-.019-3.148-.036-4.7-.125C257.749,268.848,255.273,273.394,252.038,275.325Z" fill="#7cd1f2"/>
              <path id="Path_172" data-name="Path 172" d="M225.25,223.915a62.731,62.731,0,0,1,.153-11.842c.265-3.248.111-8.328,2.366-10.94a.5.5,0,0,1,.127-.1c.087-.109.169-.214.242-.308a6.85,6.85,0,0,1,1.122-1.16,2.335,2.335,0,0,1-.677-1.119.313.313,0,0,1,.123-.294c.013.009.018.02.031.028.429.273.867.533,1.316.769.035.027.065.056.1.082l.026-.012c.13.065.263.122.4.182a.209.209,0,0,1,0,.111c.554.35,1.137.66,1.632.933a11.107,11.107,0,0,0,2.9,1.084c.006-.091.012-.183.025-.277a9.923,9.923,0,0,1,.161-3.565,37.1,37.1,0,0,1,.731-3.992.468.468,0,0,1,.9,0c.3,1.676.982,3.6,1.167,5.407,1.137-3.024,4.185-6.3,7.189-6.975a.358.358,0,0,1,.274.65c-.047.036-.1.067-.144.1a16.294,16.294,0,0,0-2.069,3.805,34.91,34.91,0,0,0-1.4,3.535c2.618-1.616,6.566-1.963,9.488-2.352a54.064,54.064,0,0,1,9.676-.429,37.672,37.672,0,0,1,9.679,1.367c1.608.524,2.877,1.615,2.458,3.345.337,3.732.086,7.562.37,11.3.261,3.433,1.127,6.911,1.364,10.351a4.754,4.754,0,0,1,2.879-2.559c-.048-7.455,1.166-15.16-.645-22.5-.909-3.68-2.938-6.935-6.481-8.534-2.939-1.324-6.088-1.234-9.175-1.895-.028.042-.047.089-.073.131a.29.29,0,0,1-.535-.145c-.166-2.357,1.53-5.287,3.43-7.165-.631.171-1.268.325-1.895.51-1.547.455-3.06,1.31-4.646,1.31h-.006c-.177,0-.358.15-.554.153a.246.246,0,0,1-.2-.422c.508-.562,1.15-.959,1.7-1.477.522-.491.992-1.033,1.523-1.514a17.078,17.078,0,0,1,1.364-1.136c-2.614.321-5.327.189-7.927.345a28.556,28.556,0,0,0-10.385,2.779c-.278.122-.594-.208-.345-.445.017-.016.036-.028.054-.042.133-1.565,1.341-3.165,2.185-4.41a13.51,13.51,0,0,1,1.872-2.33,33.1,33.1,0,0,0-14.933,6.3,31.359,31.359,0,0,0-6.441,6.563c-1.062,1.475-1.556,2.58-.968,4.449a23.736,23.736,0,0,0,2.454,4.673.4.4,0,0,1,.077.126c.019.035.041.069.061.1a.4.4,0,0,1-.563.52c-4.7,1.618-5.344,6.149-5.415,10.632a77.249,77.249,0,0,0,.795,12.643C223.721,220.706,224.616,222.3,225.25,223.915Z" fill="#5b3b23"/>
              <path id="Path_173" data-name="Path 173" d="M276.114,195.494c-1.479.133-2.971.191-4.454.2-3.445.016-6.885-.185-10.329-.2-4.313-.022-8.6.653-12.915.356a.613.613,0,0,1-.584-.765,26.625,26.625,0,0,1,3.348-6.788c-4.411,1.054-8.241,4.408-11.579,7.256a.612.612,0,0,1-1.011-.266,39.55,39.55,0,0,1-1.019-6.374c-2.411,2.88-6.065,8.372-9.614,6.242-2.4-1.439-2.857-4.547-2.436-7.715a4.2,4.2,0,0,0-.75,4.133,23.736,23.736,0,0,0,2.454,4.673.4.4,0,0,1,.077.126c.019.035.041.069.061.1a.4.4,0,0,1-.563.52c-4.7,1.618-5.344,6.149-5.415,10.632a77.249,77.249,0,0,0,.795,12.643c1.541.442,2.436,2.04,3.07,3.651a62.731,62.731,0,0,1,.153-11.842c.265-3.248.111-8.328,2.366-10.94a.5.5,0,0,1,.127-.1c.087-.109.169-.214.242-.308a6.85,6.85,0,0,1,1.122-1.16,2.335,2.335,0,0,1-.677-1.119.313.313,0,0,1,.123-.294c.013.009.018.02.031.028.429.273.867.533,1.316.769.035.027.065.056.1.082l.026-.012c.13.065.263.122.4.182a.209.209,0,0,1,0,.111c.554.35,1.137.66,1.632.933a11.107,11.107,0,0,0,2.9,1.084c.006-.091.012-.183.025-.277a9.923,9.923,0,0,1,.161-3.565,37.1,37.1,0,0,1,.731-3.992.468.468,0,0,1,.9,0c.3,1.676.982,3.6,1.167,5.407,1.137-3.024,4.185-6.3,7.189-6.975a.358.358,0,0,1,.274.65c-.047.036-.1.067-.144.1a16.294,16.294,0,0,0-2.069,3.805,34.91,34.91,0,0,0-1.4,3.535c2.618-1.616,6.566-1.963,9.488-2.352a54.064,54.064,0,0,1,9.676-.429,37.672,37.672,0,0,1,9.679,1.367c1.608.524,2.877,1.615,2.458,3.345.337,3.732.086,7.562.37,11.3.261,3.433,1.127,6.911,1.364,10.351a4.754,4.754,0,0,1,2.879-2.559c-.048-7.455,1.166-15.16-.645-22.5A15.912,15.912,0,0,0,276.114,195.494Z" fill="#49241a"/>
              <path id="Path_174" data-name="Path 174" d="M261.647,222.265a3.021,3.021,0,0,0-.352,1.206,2.225,2.225,0,0,0,.474.537c.106.082.21.142.3.213.015-.112.034-.223.045-.336a6.15,6.15,0,0,0,.053-.959.484.484,0,0,0-.1-.491C261.992,222.205,261.847,222.157,261.647,222.265Z" fill="#fff"/>
              <path id="Path_175" data-name="Path 175" d="M237.61,222.265a3.022,3.022,0,0,0-.352,1.206,2.243,2.243,0,0,0,.473.537c.107.082.211.142.3.213.017-.112.036-.223.046-.336a6.028,6.028,0,0,0,.054-.959.48.48,0,0,0-.1-.491C237.955,222.205,237.809,222.157,237.61,222.265Z" fill="#fff"/>
              <path id="Path_176" data-name="Path 176" d="M285.228,269.194c-4.689-2.533-11.011-2.991-16.217-3.426-1.6-.133-3.24-.167-4.89-.19,1.072,3.2-.476,7.541-1.546,10.533-.631,1.759-1.52,5.6-3.449,6.669.04.259-.285.408-.495.314-.061-.027-.114-.065-.171-.1a.125.125,0,0,1-.033-.016c-1.419-.737-2.525-2.369-3.54-3.548-.008-.008-.015-.018-.023-.027a4.878,4.878,0,0,1-.648,2.455,3.206,3.206,0,0,1-1.694,1.452c1.563,4.152,1.792,9.152,2.467,13.526.635,4.117,1.53,8.339,1.773,12.506a72.009,72.009,0,0,0,19.28-3.654,56.151,56.151,0,0,0,5.739-2.33.478.478,0,0,1-.023-.092,81.362,81.362,0,0,1,.575-11.513c.319-3.548.6-7.114,1.153-10.635.04-.258.452-.19.447.06-.106,3.833-.423,7.665-.613,11.494-.17,3.4-.207,6.883-.659,10.264a71.277,71.277,0,0,0,9.059-5.342c.023-4.491.431-8.939-.073-13.462C291.09,279.127,290.137,271.846,285.228,269.194Z" fill="#7cd1f2"/>
              <path id="Path_177" data-name="Path 177" d="M251.9,283.508a.489.489,0,0,1-.084-.028,2.521,2.521,0,0,0-.309-.14,1.9,1.9,0,0,1-.256-.075c-.015-.008-.02-.024-.033-.031a15,15,0,0,0-3.379-.1.4.4,0,0,1-.226.2c-.834,4.363-1.888,8.644-2.41,13.072-.5,4.219-.193,8.528-.684,12.722,2.942.243,5.887.377,8.82.345.794-.008,1.587-.035,2.38-.068-.974-4.3-1.347-8.807-2.025-13.158C253.057,292.141,251.81,287.673,251.9,283.508Z" fill="#26404c"/>
              <path id="Path_178" data-name="Path 178" d="M252.364,276.614c-.23-.25-.451-.505-.684-.755a.321.321,0,0,1-.076-.155.383.383,0,0,1-.182.143,3.474,3.474,0,0,1-2.939-.092,7.208,7.208,0,0,0-2.36.692,29.361,29.361,0,0,0-.142,3.224C248.073,278.564,250.19,277.518,252.364,276.614Z" fill="#101f23"/>
              <path id="Path_179" data-name="Path 179" d="M247.554,282.385a6,6,0,0,1,.614-.162c.266-.137.53-.278.8-.414,1.569-.807,3.152-1.753,4.777-2.6.031-.319.06-.639.106-.955-.2-.23-.415-.454-.62-.683a73.927,73.927,0,0,0-6.892,3.281,5.546,5.546,0,0,0,1.211,1.532Z" fill="#101f23"/>
              <path id="Path_180" data-name="Path 180" d="M251.916,284.483c-.008-.327-.022-.652-.016-.975a.489.489,0,0,1-.084-.028,2.521,2.521,0,0,0-.309-.14,1.9,1.9,0,0,1-.256-.075c-.015-.008-.02-.024-.033-.031a7.207,7.207,0,0,0-2.283-.122c-.485.28-.967.548-1.442.811-.2,1-.4,2-.609,3C248.576,286.134,250.27,285.352,251.916,284.483Z" fill="#101f23"/>
              <path id="Path_181" data-name="Path 181" d="M252.345,288.76c-.157-.994-.287-1.987-.363-2.969-1.769.9-3.587,1.718-5.389,2.56-.274,1.333-.542,2.669-.781,4.009C248.011,291.2,250.183,289.99,252.345,288.76Z" fill="#101f23"/>
              <path id="Path_182" data-name="Path 182" d="M253.088,292.85c-.181-.936-.364-1.879-.533-2.827-2.31,1.307-4.633,2.592-6.989,3.813-.135.849-.262,1.7-.363,2.562-.009.067-.013.134-.02.2A51.7,51.7,0,0,1,253.088,292.85Z" fill="#101f23"/>
              <path id="Path_183" data-name="Path 183" d="M253.773,296.772c-.026-.178-.051-.357-.079-.533-.11-.713-.251-1.448-.387-2.179a53.852,53.852,0,0,0-8.261,4.007c-.081,1.082-.121,2.17-.151,3.258C247.857,299.815,250.789,298.236,253.773,296.772Z" fill="#101f23"/>
              <path id="Path_184" data-name="Path 184" d="M248.71,304.275c1.862-1.052,3.77-2.013,5.684-2.966-.144-1.106-.288-2.206-.44-3.3-3.056,1.5-6.056,3.122-9.093,4.66-.029,1.331-.064,2.662-.14,3.983C246.04,305.85,247.359,305.039,248.71,304.275Z" fill="#101f23"/>
              <path id="Path_185" data-name="Path 185" d="M252.7,307.9c.818-.482,1.631-.958,2.452-1.419-.22-1.294-.411-2.6-.588-3.91-2.348,1.177-4.683,2.378-6.928,3.751-1.009.617-2.013,1.241-3.026,1.85-.027.317-.052.634-.089.951q2.854.236,5.712.314C251.068,308.895,251.892,308.373,252.7,307.9Z" fill="#101f23"/>
              <path id="Path_186" data-name="Path 186" d="M252.434,309.463c.3,0,.6.006.9,0,.794-.008,1.587-.035,2.38-.068q-.187-.828-.347-1.666C254.385,308.292,253.41,308.878,252.434,309.463Z" fill="#101f23"/>
              <path id="Path_187" data-name="Path 187" d="M238.213,273.439c.608,2.336,1.659,4.537,2.347,6.839a9.969,9.969,0,0,1,2.775-3.267,10.75,10.75,0,0,1,3.851-2.236c-2.174-2.248-3.292-6.766-3.089-9.4-2.248.382-4.489.764-6.72,1.168.107.868.033,1.733.1,2.654A24.44,24.44,0,0,0,238.213,273.439Z" fill="#7cd1f2"/>
              <path id="Path_188" data-name="Path 188" d="M246.889,283.228c-2.269-.757-2.466-4.116-1.658-6.292a16.029,16.029,0,0,0-4.417,4.379.39.39,0,0,1-.2.291c-.043.064-.089.127-.129.189a.225.225,0,0,1-.41-.172c.007-.03.019-.058.027-.088a.335.335,0,0,1-.049-.057,30.433,30.433,0,0,1-3.145-8.612c-.411-1.85-.957-4.227-.432-6.155a92.67,92.67,0,0,0-17.17,4.61c-2.531,1-4.853,2.38-6.136,4.876a35.506,35.506,0,0,0-2.419,6.852,81.214,81.214,0,0,0-2.152,14.287,43.9,43.9,0,0,0,8.734,5.849c-.315-7.2-.564-14.431-.4-21.64a.244.244,0,0,1,.487,0c.563,7.26.71,14.563.792,21.842a.462.462,0,0,1-.036.185,39.521,39.521,0,0,0,9.277,3.044,156.7,156.7,0,0,0,16.208,2.439c-.707-4.209-.075-8.935.442-13.107A56.924,56.924,0,0,1,246.889,283.228Z" fill="#7cd1f2"/>
              <path id="Path_189" data-name="Path 189" d="M262.629,272c.154-.618.291-1.24.39-1.868.244-1.533.1-3.045.275-4.563-1.571-.019-3.148-.036-4.7-.125a19.574,19.574,0,0,1-3.879,7.546A55.382,55.382,0,0,0,262.629,272Z" fill="#5199ce"/>
              <path id="Path_190" data-name="Path 190" d="M263.974,271.7a37.769,37.769,0,0,0,12.384-5.151c-2.509-.381-5.039-.589-7.347-.782-1.6-.133-3.24-.167-4.89-.19A11.36,11.36,0,0,1,263.974,271.7Z" fill="#5199ce"/>
              <path id="Path_191" data-name="Path 191" d="M282.6,288.829a43.3,43.3,0,0,1-19.789,12.661,53.01,53.01,0,0,1-6.773,1.658c.327,2.067.608,4.14.728,6.2a72.009,72.009,0,0,0,19.28-3.654,56.151,56.151,0,0,0,5.739-2.33.478.478,0,0,1-.023-.092,81.362,81.362,0,0,1,.575-11.513Q282.464,290.3,282.6,288.829Z" fill="#5199ce"/>
              <path id="Path_192" data-name="Path 192" d="M291.647,284.137c-.363-3.268-.9-7.493-2.59-10.78a24.388,24.388,0,0,1-2.778,10.159,31.017,31.017,0,0,1-2.661,4.049c-.105,1.7-.213,3.41-.3,5.112-.17,3.4-.207,6.883-.659,10.264a71.277,71.277,0,0,0,9.059-5.342C291.743,293.108,292.151,288.66,291.647,284.137Z" fill="#5199ce"/>
              <path id="Path_193" data-name="Path 193" d="M237.713,271.065c.611.159,1.213.3,1.8.438,2.059.475,4.128.862,6.208,1.137a15.2,15.2,0,0,1-1.62-7.266c-2.248.382-4.489.764-6.72,1.168.107.868.033,1.733.1,2.654C237.531,269.822,237.612,270.447,237.713,271.065Z" fill="#5199ce"/>
              <path id="Path_194" data-name="Path 194" d="M230.125,268.029a23.242,23.242,0,0,0,6.35,2.7,9.613,9.613,0,0,1,0-4.019C234.351,267.108,232.232,267.538,230.125,268.029Z" fill="#5199ce"/>
              <path id="Path_195" data-name="Path 195" d="M243.376,303.643a37.268,37.268,0,0,1-10.29-2.568c-6.962-2.865-13.4-8.409-15.415-15.632.349,5.972.474,11.966.542,17.944a.462.462,0,0,1-.036.185,39.521,39.521,0,0,0,9.277,3.044,156.7,156.7,0,0,0,16.208,2.439A27.2,27.2,0,0,1,243.376,303.643Z" fill="#5199ce"/>
              <path id="Path_196" data-name="Path 196" d="M216.916,283.4c-1.809,3.588-3.022,7.836-7.705,7.918-.244,1.995-.429,4-.61,6.017a43.9,43.9,0,0,0,8.734,5.849C217.048,296.6,216.83,289.993,216.916,283.4Z" fill="#5199ce"/>
              <path id="Path_197" data-name="Path 197" d="M238.963,178.487c.058-.033.02-.132-.046-.109-3.213,1.058-7.444,3.962-7.853,7.62-.043.392.339.627.667.667,1.733.208,2.965-1.028,4.337-1.88a2.567,2.567,0,0,0-.268.831c-.1.779.894,1.044,1.441.892a.409.409,0,0,0,.242-.6c-.4-.641.6-1.608.823-2.278a.6.6,0,0,0-.73-.731c-1.494.558-3.32,2.314-5,2.475C233.479,182.559,236.6,179.876,238.963,178.487Z" fill="#fff"/>
              <path id="Path_198" data-name="Path 198" d="M240.734,185.277c-.741-.023-1.639.754-1.5,1.525a.313.313,0,0,0,.388.219,2.018,2.018,0,0,0,.724-.53c.229-.245.516-.383.7-.672A.364.364,0,0,0,240.734,185.277Z" fill="#fff"/>
              <path id="Path_199" data-name="Path 199" d="M248.31,182.815c-1.11.586-2.236,1.15-3.32,1.782-.886.515-2.251,1.2-2.544,2.237a.47.47,0,0,0,.573.573c.9-.3,1.5-1.26,2.206-1.886a21.815,21.815,0,0,1,3.3-2.343A.21.21,0,0,0,248.31,182.815Z" fill="#fff"/>
            </g>
            <g id="Supri-2" data-name="Supri">
              <path id="Path_200" data-name="Path 200" d="M207.845,297.986v-.016h0Z"/>
              <path id="Path_201" data-name="Path 201" d="M292.7,283.1c-.6-4.644-1.508-10.767-5.377-13.942-3.812-3.127-10.05-3.649-14.743-4.214-3.123-.376-6.263-.565-9.406-.639-2-.052-4.1-.189-6.145-.106-.01-.508-.027-1.016-.024-1.523.006-1.048.035-2.092-.035-3.134.281-.058.558-.127.834-.2a23.837,23.837,0,0,0,6.52-1.968,15.783,15.783,0,0,0,6.269-4.653,17.936,17.936,0,0,0,2.878-6.7,54.235,54.235,0,0,0,1.548-8.508c1.255.678,3.2-.49,4.138-1.5,2.1-2.269,2.912-6.041,2.893-9.046-.014-1.983-.74-5.436-3.082-5.922a81.576,81.576,0,0,0,.351-12.942c-.1-4.148-.159-8.525-1.758-12.421-2.572-6.267-9.178-8.921-15.66-8.205.571-1.132.954-2.378,1.6-3.479a38,38,0,0,1,2.74-3.677c.106-.044.215-.078.319-.128.257-.118.107-.467-.134-.479-.1,0-.212,0-.32,0a.3.3,0,0,0-.193,0,15.326,15.326,0,0,0-5.575,1.245c1.076-1.066,2.373-1.9,3.425-2.97.079-.02.159-.029.238-.051a.257.257,0,0,0-.069-.5,94.352,94.352,0,0,0-12.548.473,17.137,17.137,0,0,0-7.146,2.2c.587-.924,1.134-1.874,1.75-2.779.891-1.307,2.067-2.317,3-3.561a.258.258,0,0,0,.03-.235.464.464,0,0,0-.512-.579,33.4,33.4,0,0,0-18.764,8.143c-2.193,1.916-4.954,4.525-6.1,7.292-1.045,2.508.723,5.678,2.425,7.781-3.472.463-5.25,4.455-5.622,7.614a54.13,54.13,0,0,0,.725,16.38c-.079,0-.148-.011-.229,0-2.363.259-3.237,3-3.488,4.983-.4,3.124-.2,7.292,1.864,9.875,1.36,1.7,3.848,2.706,5.718,1.637a25.809,25.809,0,0,0,6.418,18.216c3.035,3.288,8.568,6.292,13.487,6.063-.053.748-.014,1.508-.016,2.256,0,.3-.014.615-.026.922a82.176,82.176,0,0,0-13.158,2.218c-5.069,1.2-10.66,2.492-15.244,5.052-4.022,2.246-5.343,6.327-6.524,10.542a48.233,48.233,0,0,0-2.043,14.865l-.079,1.194.032-.006c.043.045.088.091.131.138.008.044.017.085.021.127a.232.232,0,0,0,.3.209c4.795,4.852,11.332,7.737,17.955,9.132a126.618,126.618,0,0,0,26.613,3.061c13.193-.091,27.9-3.435,38.835-11.469l.965-.751.249-1.672A54.948,54.948,0,0,0,292.7,283.1M258.591,265.44c1.555.089,3.132.106,4.7.125-.173,1.518-.031,3.03-.275,4.563a28.292,28.292,0,0,1-1.155,4.481,44.709,44.709,0,0,1-3.145,7.34,30.774,30.774,0,0,0-3.164-3.565c-.933-1.073-1.99-2.819-3.517-3.059,3.235-1.931,5.711-6.477,6.553-9.885m-4.744,12.809a11.222,11.222,0,0,1-.412,2.474,3.167,3.167,0,0,1-1.494,1.605,2.516,2.516,0,0,0-1.2-.275,8.935,8.935,0,0,0-3.184.332l-.008-.006a4.171,4.171,0,0,1-1.563-2.673,27.472,27.472,0,0,1,.14-3.259,7.208,7.208,0,0,1,2.36-.692,3.474,3.474,0,0,0,2.939.092.383.383,0,0,0,.182-.143.321.321,0,0,0,.076.155c.739.788,1.455,1.583,2.167,2.39M226.8,196.989a.4.4,0,0,0,.563-.52c-.02-.034-.042-.068-.061-.1a.4.4,0,0,0-.077-.126,23.736,23.736,0,0,1-2.454-4.673c-.588-1.869-.094-2.974.968-4.449a31.359,31.359,0,0,1,6.441-6.563,33.1,33.1,0,0,1,14.933-6.3,13.51,13.51,0,0,0-1.872,2.33c-.844,1.245-2.052,2.845-2.185,4.41-.018.014-.037.026-.054.042-.249.237.067.567.345.445a28.556,28.556,0,0,1,10.385-2.779c2.6-.156,5.313-.024,7.927-.345A17.078,17.078,0,0,0,260.3,179.5c-.531.481-1,1.023-1.523,1.514-.552.518-1.194.915-1.7,1.477a.246.246,0,0,0,.2.422c.2,0,.377-.153.554-.153h.006c1.586,0,3.1-.855,4.646-1.31.627-.185,1.264-.339,1.895-.51-1.9,1.878-3.6,4.808-3.43,7.165a.29.29,0,0,0,.535.145c.026-.042.045-.089.073-.131,3.087.661,6.236.571,9.175,1.895,3.543,1.6,5.572,4.854,6.481,8.534,1.811,7.342.6,15.047.645,22.5a4.754,4.754,0,0,0-2.879,2.559c-.237-3.44-1.1-6.918-1.364-10.351-.284-3.743-.033-7.573-.37-11.3.419-1.73-.85-2.821-2.458-3.345a37.672,37.672,0,0,0-9.679-1.367,54.064,54.064,0,0,0-9.676.429c-2.922.389-6.87.736-9.488,2.352a34.91,34.91,0,0,1,1.4-3.535,16.294,16.294,0,0,1,2.069-3.805c.048-.036.1-.067.144-.1a.358.358,0,0,0-.274-.65c-3,.67-6.052,3.951-7.189,6.975-.185-1.8-.866-3.731-1.167-5.407a.468.468,0,0,0-.9,0,37.1,37.1,0,0,0-.731,3.992,9.923,9.923,0,0,0-.161,3.565c-.013.094-.019.186-.025.277a11.107,11.107,0,0,1-2.9-1.084c-.5-.273-1.078-.583-1.632-.933a.209.209,0,0,0,0-.111c-.132-.06-.265-.117-.4-.182l-.026.012c-.037-.026-.067-.055-.1-.082-.449-.236-.887-.5-1.316-.769-.013-.008-.018-.019-.031-.028a.313.313,0,0,0-.123.294,2.335,2.335,0,0,0,.677,1.119,6.85,6.85,0,0,0-1.122,1.16c-.073.094-.155.2-.242.308a.5.5,0,0,0-.127.1c-2.255,2.612-2.1,7.692-2.366,10.94a62.731,62.731,0,0,0-.153,11.842c-.634-1.611-1.529-3.209-3.07-3.651a77.249,77.249,0,0,1-.795-12.643c.071-4.483.712-9.014,5.415-10.632m18.079,68.253,1.046-.179.043-1.034c0-.285,0-.57,0-.851a14.084,14.084,0,0,0-.124-2.331A9.2,9.2,0,0,0,248,260.3a.379.379,0,0,0-.1-.741c-3.02-.222-5.77.1-8.731-.931a17.16,17.16,0,0,1-7.421-5.132,23.55,23.55,0,0,1-4.426-8.3c-.911-2.962-1.032-6.023-1.637-9.03a3.8,3.8,0,0,0,.316-.328.325.325,0,0,0-.392-.507c-5.619,2.8-7.222-4.479-7.118-8.507.052-1.944.56-6.87,4.1-5.321,1.576.691,2.259,2.986,2.971,4.5.01.056.017.112.028.167a.2.2,0,0,0,.153.165.189.189,0,0,0,.319-.155c.013-.027.036-.047.038-.079.3-4.054.006-8.15.309-12.221.3-3.972.454-8.27,2.006-11.984a5.868,5.868,0,0,1,.445-.631c.336-.392.707-.747,1.061-1.119a14.509,14.509,0,0,0,1.925,1.189c1.062.572,2.469,1.351,3.654.854a.416.416,0,0,0,.368-.165c.014-.022.019-.047.034-.07a.327.327,0,0,0,.074-.153,3.206,3.206,0,0,0,.1-1c.007-.278,0-.55-.017-.823.067-.525.084-1.063.15-1.588.075-.591.165-1.18.255-1.769a11.961,11.961,0,0,0,1.084,4.05c.019.035.049.044.073.066.345-.368.692-.733,1.049-1.091a19.5,19.5,0,0,1,2.646-3.861,12.01,12.01,0,0,1,1.94-1.6c-.213.442-.4.88-.578,1.232a18.584,18.584,0,0,0-2.015,5.307.491.491,0,0,0,.945.261c.035-.1.068-.195.1-.291,2.051-.044,4.15-.925,6.159-1.334a53.077,53.077,0,0,1,8.466-1.023,52.341,52.341,0,0,1,7.258.2c2.027.2,8.6.3,8.6,3.531h0c0,3.638-.1,7.573.183,11.188.292,3.794.508,8.3,1.906,11.873a6.486,6.486,0,0,0-.237,1.208c-.041.358.475.353.589.078a8.52,8.52,0,0,1,1.621-2.922,3.91,3.91,0,0,1,3.616-.256c1.3.987,1.012,4.216.845,5.6-.318,2.657-1.9,8.771-5.633,7.446a.283.283,0,0,0-.349-.131c-.029-.014-.054-.018-.081-.031a.326.326,0,0,0-.442.441,2.554,2.554,0,0,0,.174.326c-1.364,4.977-1.488,10.8-4.715,15.014a15.2,15.2,0,0,1-6.907,4.785c-2.226.835-4.741,1.024-6.873,2.038a9.517,9.517,0,0,0-1.812.6c-.238.113-.1.446.125.461a9.15,9.15,0,0,0,1.906-.1,16.257,16.257,0,0,0-.346,4.591l.1.915,1.17.124c.225.021.454.034.677.051-1.071,1.7-1.8,3.633-2.911,5.32a25.668,25.668,0,0,1-3.9,4.277c-4.584-.683-5.009-5.94-6.1-9.711.031-.006.059-.012.089-.016m-.782.132c-.2,2.635.915,7.153,3.089,9.4a10.75,10.75,0,0,0-3.851,2.236,9.969,9.969,0,0,0-2.775,3.267c-.688-2.3-1.739-4.5-2.347-6.839a24.44,24.44,0,0,1-.731-4.243c-.072-.921,0-1.786-.1-2.654,2.231-.4,4.472-.786,6.72-1.168m-.435,43.681a156.7,156.7,0,0,1-16.208-2.439,39.521,39.521,0,0,1-9.277-3.044.462.462,0,0,0,.036-.185c-.082-7.279-.229-14.582-.792-21.842a.244.244,0,0,0-.487,0c-.163,7.209.086,14.436.4,21.64a43.9,43.9,0,0,1-8.734-5.849,81.214,81.214,0,0,1,2.152-14.287,35.506,35.506,0,0,1,2.419-6.852c1.283-2.5,3.6-3.878,6.136-4.876a92.67,92.67,0,0,1,17.17-4.61c-.525,1.928.021,4.3.432,6.155a30.433,30.433,0,0,0,3.145,8.612.335.335,0,0,0,.049.057c-.008.03-.02.058-.027.088a.225.225,0,0,0,.41.172c.04-.062.086-.125.129-.189a.39.39,0,0,0,.2-.291,16.029,16.029,0,0,1,4.417-4.379c-.808,2.176-.611,5.535,1.658,6.292a56.924,56.924,0,0,0-2.785,12.72c-.517,4.172-1.149,8.9-.442,13.107m9.677.41c-2.933.032-5.878-.1-8.82-.345.491-4.194.186-8.5.684-12.722.522-4.428,1.576-8.709,2.41-13.072a.4.4,0,0,0,.226-.2,15,15,0,0,1,3.379.1c.013.007.018.023.033.031a1.9,1.9,0,0,0,.256.075,2.521,2.521,0,0,1,.309.14.489.489,0,0,0,.084.028c-.09,4.165,1.157,8.633,1.794,12.731.678,4.351,1.051,8.86,2.025,13.158-.793.033-1.586.06-2.38.068M291.72,297.6a71.277,71.277,0,0,1-9.059,5.342c.452-3.381.489-6.86.659-10.264.19-3.829.507-7.661.613-11.494,0-.25-.407-.318-.447-.06-.549,3.521-.834,7.087-1.153,10.635a81.362,81.362,0,0,0-.575,11.513.478.478,0,0,0,.023.092,56.151,56.151,0,0,1-5.739,2.33,72.009,72.009,0,0,1-19.28,3.654c-.243-4.167-1.138-8.389-1.773-12.506-.675-4.374-.9-9.374-2.467-13.526a3.206,3.206,0,0,0,1.694-1.452,4.878,4.878,0,0,0,.648-2.455c.008.009.015.019.023.027,1.015,1.179,2.121,2.811,3.54,3.548a.125.125,0,0,0,.033.016c.057.03.11.068.171.1.21.094.535-.055.495-.314,1.929-1.07,2.818-4.91,3.449-6.669,1.07-2.992,2.618-7.332,1.546-10.533,1.65.023,3.29.057,4.89.19,5.206.435,11.528.893,16.217,3.426,4.909,2.652,5.862,9.933,6.419,14.943.5,4.523.1,8.971.073,13.462"/>
              <path id="Path_202" data-name="Path 202" d="M223.47,227.276c-.223-.793-.5-2.085-1.288-2.524-1.559-.866-3.069,1.4-2.5,2.763a.339.339,0,0,0,.647,0,2.3,2.3,0,0,1,.809-1.4c.626-.361.971.6,1.229,1.054a14.578,14.578,0,0,1,1.272,3.41.165.165,0,0,0,.323-.044,11.783,11.783,0,0,0-.488-3.256"/>
              <path id="Path_203" data-name="Path 203" d="M277.141,225.393c-.779.576-1.068,1.884-1.335,2.742a13.305,13.305,0,0,0-.728,4.073.305.305,0,0,0,.6.081c.342-1.153.562-2.323.98-3.454.171-.459.423-1.618.847-1.926.878-.639.933.426,1.306.917a.228.228,0,0,0,.387,0c.681-1.213-.591-3.516-2.053-2.433"/>
              <path id="Path_204" data-name="Path 204" d="M239.643,214.57c-.832-1.908-1.835-4.138-4.314-3.307-1.268.425-3.793,1.824-3.479,3.426a.319.319,0,0,0,.528.139,12.589,12.589,0,0,1,2.953-1.986c2.029-1.041,2.864.613,4.026,1.948.147.168.361-.045.286-.22"/>
              <path id="Path_205" data-name="Path 205" d="M264.079,212.085c-1.945-.069-4.023,1.772-5.264,3.077-.165.175.054.495.269.347a11.382,11.382,0,0,1,4.035-1.929c1.821-.358,2.006,1.2,3.194,2.065.239.172.494-.069.522-.3a3.1,3.1,0,0,0-2.756-3.262"/>
              <path id="Path_206" data-name="Path 206" d="M239.106,221.879a1.3,1.3,0,0,0-2.369.227,6.76,6.76,0,0,0-.6,2.642c-.044.687-.2,1.9.354,2.44a1.041,1.041,0,0,0,1.528-.189,4.638,4.638,0,0,0,1-2.345,5.709,5.709,0,0,0,.086-2.775m-1.848,1.592a3.022,3.022,0,0,1,.352-1.206c.2-.108.345-.06.425.17a.48.48,0,0,1,.1.491,6.028,6.028,0,0,1-.054.959c-.01.113-.029.224-.046.336-.091-.071-.2-.131-.3-.213a2.243,2.243,0,0,1-.473-.537"/>
              <path id="Path_207" data-name="Path 207" d="M263.144,221.879a1.3,1.3,0,0,0-2.369.227,6.725,6.725,0,0,0-.6,2.642c-.044.687-.2,1.9.353,2.44a1.042,1.042,0,0,0,1.529-.189,4.639,4.639,0,0,0,1-2.345,5.745,5.745,0,0,0,.085-2.775m-1.849,1.592a3.021,3.021,0,0,1,.352-1.206c.2-.108.345-.06.426.17a.484.484,0,0,1,.1.491,6.15,6.15,0,0,1-.053.959c-.011.113-.03.224-.045.336-.093-.071-.2-.131-.3-.213a2.225,2.225,0,0,1-.474-.537"/>
              <path id="Path_208" data-name="Path 208" d="M251.325,240.353a3.25,3.25,0,0,1-4.44.24c-1.2-1.107-.817-2.363-.682-3.742a64.554,64.554,0,0,1,1.341-7.635.181.181,0,0,0-.349-.1,45.274,45.274,0,0,0-1.754,7.628c-.163,1.105-.868,3.2-.154,4.183.512.706,2.525,1.321,3.414,1.43a2.992,2.992,0,0,0,3.09-1.648.3.3,0,0,0-.466-.359"/>
              <path id="Path_209" data-name="Path 209" d="M257.226,246.138c-2.313.29-4.619.661-6.921.965-2.068.273-4.155.5-6.228.786l-.644.089.238.758a3.557,3.557,0,0,0,1.689,2.311c1.662.7,4.263.2,5.984-.079,3.2-.527,5.716-1.581,6.528-4.106l.187-.83Zm-.334,1.093c-.947,2.1-3.7,2.487-5.742,2.779a15.606,15.606,0,0,1-4.2.259,3.149,3.149,0,0,1-2.443-1.614c2.246-.216,4.491-.533,6.711-.83,1.913-.255,3.839-.5,5.752-.811-.029.071-.043.146-.074.217"/>
            </g>
          </g>
        </g>
      </g>
    </g>
  </g>
</svg>
