<svg id="message-search_bold" data-name="message-search/bold" xmlns="http://www.w3.org/2000/svg" width="24" height="24" viewBox="0 0 24 24">
  <g id="vuesax_bold_message-search" data-name="vuesax/bold/message-search">
    <g id="message-search">
      <path id="Vector" d="M0,0H24V24H0Z" fill="none" opacity="0"/>
      <path id="Vector-2" data-name="Vector" d="M15,0H5A4.991,4.991,0,0,0,0,4.98v6.98a4.991,4.991,0,0,0,5,4.98H6.5a1.149,1.149,0,0,1,.8.4l1.5,1.99a1.421,1.421,0,0,0,2.4,0l1.5-1.99a1.014,1.014,0,0,1,.8-.4H15a4.991,4.991,0,0,0,5-4.98V4.98A4.991,4.991,0,0,0,15,0ZM13.66,12.53a.748.748,0,0,1-1.06,0l-.74-.74a3.707,3.707,0,1,1,1.06-1.06l.74.74A.754.754,0,0,1,13.66,12.53Z" transform="translate(2 2)" fill="#6b7280"/>
    </g>
  </g>
</svg>
